<svg width="192" height="190" viewBox="0 0 192 190" fill="none" xmlns="http://www.w3.org/2000/svg">
<g id="ar" clip-path="url(#clip0_42_346)">
<g id="ar4">
<g id="Group">
<g id="Group_2">
<path id="Vector" d="M78.7943 41.9591L87.9475 51.0723C90.2433 53.3601 93.9602 53.3513 96.2466 51.055C98.5329 48.7587 98.5261 45.0424 96.2289 42.758L88.662 35.2247L124.447 30.0318L150.073 55.5435L139.508 57.0774C136.3 57.5407 134.077 60.5191 134.544 63.7262C134.872 66.0003 136.468 67.7805 138.511 68.4563C139.348 68.7334 140.261 68.8249 141.194 68.6896L153.976 66.834L139.883 109.421L96.0715 115.779L64.7012 84.5463L78.7943 41.9591ZM53.8498 90.3024L89.8713 126.164C90.526 126.816 91.3151 127.295 92.1673 127.577C93.0213 127.859 93.9401 127.946 94.8543 127.813L145.157 120.513C147.358 120.194 149.187 118.66 149.885 116.549L168.1 61.5078C168.212 61.1698 168.281 60.8261 168.33 60.4809C168.344 60.381 168.354 60.2831 168.362 60.1829C168.387 59.9052 168.393 59.628 168.378 59.3523C168.374 59.2824 168.378 59.2136 168.371 59.1445C168.343 58.8149 168.281 58.4912 168.196 58.1719C168.174 58.084 168.144 58.0023 168.118 57.9165C168.038 57.6655 167.944 57.4222 167.833 57.1847C167.796 57.1055 167.762 57.0259 167.722 56.948C167.568 56.6536 167.394 56.3679 167.189 56.1015C167.158 56.0589 167.119 56.0236 167.086 55.9833C166.953 55.8196 166.82 55.6558 166.67 55.5066L130.649 19.6469C129.341 18.3416 127.494 17.7305 125.666 17.9981L75.3621 25.296C75.1519 25.3258 74.9477 25.3784 74.7452 25.4312C74.6949 25.4436 74.6419 25.4482 74.5922 25.4645C74.2674 25.5558 73.9585 25.6814 73.6588 25.8256C73.5791 25.8644 73.5063 25.9087 73.4292 25.9499C73.1981 26.074 72.9755 26.2127 72.7634 26.3669C72.6911 26.4201 72.6186 26.4681 72.5484 26.5254C72.2903 26.7312 72.0467 26.9536 71.8262 27.2012C71.7815 27.2533 71.7437 27.311 71.6986 27.3645C71.522 27.5769 71.3615 27.8028 71.2146 28.0404C71.1621 28.1256 71.1118 28.2103 71.0639 28.2988C70.8972 28.6053 70.7464 28.9219 70.6345 29.2599L52.4199 84.3011C51.7215 86.4118 52.2754 88.7349 53.8498 90.3024Z" fill="#595959"/>
</g>
</g>
</g>
<g id="ar1">
<g id="Group_3">
<g id="Group_4">
<path id="Vector_2" d="M114.32 69.9753L114.492 69.4551C115.001 67.9173 114.167 66.2588 112.628 65.7496C111.09 65.2406 109.43 66.0738 108.921 67.6116L108.748 68.1318C108.24 69.67 109.074 71.3304 110.612 71.839C112.152 72.3485 113.811 71.5131 114.32 69.9753Z" fill="#595959"/>
</g>
</g>
</g>
<g id="ar2">
<g id="Group_5">
<g id="Group_6">
<path id="Vector_3" d="M113.857 62.0345C115.396 62.544 117.055 61.7103 117.564 60.1708L117.735 59.6536C118.244 58.1141 117.411 56.4542 115.872 55.9451C114.334 55.4361 112.673 56.271 112.164 57.8102L111.993 58.3277C111.483 59.8669 112.318 61.5258 113.857 62.0345Z" fill="#595959"/>
</g>
</g>
</g>
<g id="ar3">
<g id="Group_7">
<g id="Group_8">
<path id="Vector_4" d="M117.101 52.2316C118.64 52.7411 120.299 51.9071 120.808 50.3679L120.98 49.849C121.489 48.3098 120.656 46.6514 119.116 46.1418C117.578 45.6332 115.918 46.4664 115.409 48.0059L115.237 48.5244C114.727 50.0639 115.563 51.7226 117.101 52.2316Z" fill="#595959"/>
</g>
</g>
</g>
<g id="ar2_2">
<g id="Group_9">
<g id="Group_10">
<path id="Vector_5" d="M123.668 98.2555L124.056 98.6409C124.39 98.9723 124.782 99.2086 125.203 99.3476C126.223 99.6855 127.394 99.4458 128.206 98.6316C129.349 97.4833 129.343 95.6263 128.197 94.4831L127.808 94.0977C126.662 92.9594 124.803 92.9595 123.66 94.1057C122.517 95.2555 122.521 97.1123 123.668 98.2555Z" fill="#595959"/>
</g>
</g>
</g>
<g id="ar1_2">
<g id="Group_11">
<g id="Group_12">
<path id="Vector_6" d="M116.351 90.9695L116.737 91.3562C117.071 91.6875 117.466 91.9226 117.884 92.0611C118.905 92.399 120.075 92.1607 120.887 91.3469C122.03 90.1971 122.027 88.3403 120.878 87.1966L120.49 86.8112C119.346 85.6734 117.487 85.6736 116.341 86.821C115.197 87.9689 115.202 89.8275 116.351 90.9695Z" fill="#595959"/>
</g>
</g>
</g>
<g id="ar3_2">
<g id="Group_13">
<g id="Group_14">
<path id="Vector_7" d="M130.987 105.541L131.374 105.926C131.707 106.259 132.103 106.494 132.521 106.632C133.542 106.97 134.712 106.732 135.524 105.918C136.666 104.768 136.663 102.912 135.515 101.768L135.127 101.382C133.981 100.243 132.123 100.245 130.978 101.392C129.834 102.54 129.84 104.397 130.987 105.541Z" fill="#595959"/>
</g>
</g>
</g>
<g id="ar1_3">
<g id="Group_15">
<g id="Group_16">
<path id="Vector_8" d="M94.288 78.1418L93.7467 78.2195C92.1445 78.4535 91.0336 79.9413 91.2652 81.5459C91.4302 82.683 92.2274 83.5721 93.2478 83.9099C93.668 84.0489 94.1237 84.0951 94.5895 84.0283L95.1313 83.9488C96.7347 83.7171 97.8461 82.2276 97.6126 80.6242C97.3808 79.021 95.8909 77.9115 94.288 78.1418Z" fill="#595959"/>
</g>
</g>
</g>
<g id="ar3_3">
<g id="Group_17">
<g id="Group_18">
<path id="Vector_9" d="M73.8483 81.1074L73.3086 81.186C71.7047 81.4194 70.5939 82.9069 70.8255 84.5115C70.9905 85.649 71.7876 86.538 72.8098 86.8763C73.2283 87.0145 73.684 87.061 74.1503 86.9925L74.6916 86.9148C76.2955 86.6813 77.4064 85.1935 77.1743 83.5903C76.9394 81.9864 75.4512 80.877 73.8483 81.1074Z" fill="#595959"/>
</g>
</g>
</g>
<g id="ar2_3">
<g id="Group_19">
<g id="Group_20">
<path id="Vector_10" d="M84.0681 79.6253L83.5281 79.7038C81.9245 79.9373 80.812 81.4243 81.0454 83.028C81.2104 84.1651 82.0071 85.0558 83.0279 85.3933C83.4477 85.5323 83.9043 85.5772 84.3701 85.5104L84.9114 85.4327C86.515 85.1992 87.6259 83.7114 87.3946 82.1068C87.1592 80.5043 85.6693 79.3944 84.0681 79.6253Z" fill="#595959"/>
</g>
</g>
</g>
<g id="ar5">
<g id="Group_21">
<g id="Group_22">
<g id="Group_23">
<g id="Group_24">
<path id="Vector_11" d="M161.793 125.181C160.05 123.116 156.966 122.854 154.902 124.597C152.838 126.336 152.575 129.422 154.318 131.487C160.68 139.028 163.173 146.232 161.339 151.774C156.771 165.578 123.114 171.505 82.1187 157.942C41.1269 144.379 17.6487 119.546 22.2166 105.743C23.3739 102.246 26.0427 99.6632 29.1857 97.755L27.8579 100.742C26.7601 103.21 27.8705 106.099 30.3389 107.197C30.4898 107.264 30.6423 107.321 30.7951 107.372C33.1529 108.152 35.7627 107.032 36.7935 104.714L43.1037 90.5226C43.6504 89.2902 43.6653 87.8888 43.1447 86.6458C42.6241 85.4028 41.6127 84.4309 40.3525 83.9573L25.8096 78.5051C23.2471 77.5457 20.4623 78.8376 19.5128 81.3655C18.5643 83.8953 19.8468 86.7131 22.3733 87.6619L25.2423 88.7362C19.0325 92.1977 14.8364 96.9095 12.93 102.67C5.79206 124.24 34.8351 152.597 79.0465 167.226C123.259 181.854 163.486 176.416 170.624 154.846C173.609 145.826 170.555 135.568 161.793 125.181Z" fill="#595959"/>
</g>
</g>
</g>
</g>
</g>
</g>
<defs>
<clipPath id="clip0_42_346">
<rect width="175" height="173" fill="white" transform="translate(16.9197) rotate(5.6126)"/>
</clipPath>
</defs>
</svg>
