<svg width="165" height="172" viewBox="0 0 165 172" fill="none" xmlns="http://www.w3.org/2000/svg">
<g id="are" clip-path="url(#clip0_42_291)">
<g id="are2">
<g id="Group">
<g id="Group_2">
<path id="Vector" d="M124.204 96.0623C122.642 97.4052 122.467 99.7583 123.813 101.315L127.405 105.469C128.751 107.026 131.11 107.198 132.672 105.855C134.234 104.512 134.409 102.161 133.063 100.604L129.471 96.4507C128.125 94.8936 125.766 94.7192 124.204 96.0623Z" fill="#595959"/>
</g>
</g>
</g>
<g id="are3">
<g id="Group_3">
<g id="Group_4">
<path id="Vector_2" d="M88.9405 125.354C87.3784 126.697 87.2035 129.048 88.5497 130.605L106.88 151.804C108.226 153.361 110.584 153.535 112.146 152.191C113.708 150.848 113.884 148.497 112.538 146.939L94.208 125.74C92.8618 124.183 90.5029 124.011 88.9405 125.354Z" fill="#595959"/>
</g>
</g>
</g>
<g id="are2_2">
<g id="Group_5">
<g id="Group_6">
<path id="Vector_3" d="M90.1366 104.499C88.5745 105.842 88.3984 108.194 89.7446 109.751L108.645 131.61C109.991 133.167 112.35 133.339 113.912 131.996C115.475 130.653 115.65 128.302 114.303 126.745L95.4029 104.886C94.0567 103.329 91.699 103.156 90.1366 104.499Z" fill="#595959"/>
</g>
</g>
</g>
<g id="are2_3">
<g id="Group_7">
<g id="Group_8">
<path id="Vector_4" d="M94.9424 87.0643C93.3789 88.4085 93.2039 90.7595 94.5501 92.3162L123.894 126.253C125.24 127.81 127.598 127.984 129.161 126.639C130.724 125.296 130.899 122.946 129.552 121.388L100.208 87.4515C98.8623 85.8948 96.5045 85.7212 94.9424 87.0643Z" fill="#595959"/>
</g>
</g>
</g>
<g id="are2_4">
<g id="Group_9">
<g id="Group_10">
<path id="Vector_5" d="M117.181 135.777C115.619 137.12 115.444 139.473 116.79 141.03L117.492 141.842C118.839 143.399 121.198 143.571 122.76 142.229C124.322 140.885 124.497 138.534 123.151 136.978L122.448 136.165C121.102 134.608 118.744 134.434 117.181 135.777Z" fill="#595959"/>
</g>
</g>
</g>
<g id="are3_2">
<g id="Group_11">
<g id="Group_12">
<path id="Vector_6" d="M126.306 146.33C124.744 147.673 124.569 150.026 125.915 151.583L126.617 152.395C127.963 153.952 130.322 154.124 131.885 152.781C133.447 151.438 133.622 149.087 132.276 147.53L131.573 146.718C130.227 145.161 127.868 144.987 126.306 146.33Z" fill="#595959"/>
</g>
</g>
</g>
<g id="are4">
<g id="Group_13">
<g id="Group_14">
<path id="Vector_7" d="M145.431 120.611C143.869 121.954 143.692 124.306 145.04 125.864L145.742 126.677C147.087 128.232 149.447 128.406 151.009 127.063C152.571 125.72 152.745 123.368 151.4 121.812L150.698 121C149.351 119.441 146.993 119.268 145.431 120.611Z" fill="#595959"/>
</g>
</g>
</g>
<g id="are3_3">
<g id="Group_15">
<g id="Group_16">
<path id="Vector_8" d="M136.306 110.058C134.744 111.402 134.569 113.755 135.915 115.312L136.617 116.124C137.963 117.681 140.322 117.853 141.885 116.51C143.447 115.167 143.622 112.816 142.275 111.259L141.573 110.447C140.227 108.89 137.868 108.715 136.306 110.058Z" fill="#595959"/>
</g>
</g>
</g>
<g id="are3_4">
<g id="Group_17">
<g id="Group_18">
<path id="Vector_9" d="M73.5848 128.951C72.0228 130.294 71.8473 132.647 73.1938 134.204L80.9065 143.125C82.254 144.683 84.6129 144.855 86.175 143.512C87.7374 142.169 87.9124 139.818 86.5652 138.26L78.8522 129.34C77.506 127.783 75.1472 127.608 73.5848 128.951Z" fill="#595959"/>
</g>
</g>
</g>
<g id="are4_2">
<g id="Group_19">
<g id="Group_20">
<path id="Vector_10" d="M89.8103 147.716C88.2482 149.059 88.0731 151.412 89.4193 152.97L90.1205 153.78C91.4677 155.339 93.8266 155.511 95.389 154.168C96.9511 152.825 97.1261 150.474 95.7789 148.916L95.0776 148.105C93.7314 146.548 91.3727 146.373 89.8103 147.716Z" fill="#595959"/>
</g>
</g>
</g>
<g id="are2_5">
<g id="Group_21">
<g id="Group_22">
<path id="Vector_11" d="M131.005 79.7252C129.443 81.0684 129.268 83.4193 130.614 84.9764L137.11 92.4887C138.457 94.0469 140.815 94.2202 142.377 92.877C143.94 91.5329 144.115 89.1822 142.768 87.624L136.272 80.1114C134.926 78.5546 132.568 78.3813 131.005 79.7252Z" fill="#595959"/>
</g>
</g>
</g>
<g id="are3_5">
<g id="Group_23">
<g id="Group_24">
<path id="Vector_12" d="M146.011 97.0806C144.449 98.4235 144.274 100.774 145.62 102.332L146.322 103.144C147.669 104.701 150.027 104.875 151.59 103.532C153.153 102.188 153.327 99.8359 151.981 98.2789L151.279 97.4668C149.932 95.9097 147.575 95.7364 146.011 97.0806Z" fill="#595959"/>
</g>
</g>
</g>
<g id="are1">
<g id="Group_25">
<g id="Group_26">
<g id="Group_27">
<g id="Group_28">
<path id="Vector_13" d="M22.9737 79.4795L39.4357 40.1972L69.2014 74.6218L52.7394 113.904L22.9737 79.4795ZM47.9229 32.9006L89.3114 22.4464L119.077 56.8713L77.6886 67.3252L47.9229 32.9006ZM50.8988 128.734C50.9734 128.794 51.0489 128.851 51.1262 128.906C51.3423 129.063 51.5665 129.203 51.8011 129.325C51.8588 129.356 51.9115 129.393 51.9706 129.421C52.2552 129.558 52.5517 129.666 52.8542 129.755C52.9371 129.779 53.0203 129.794 53.1021 129.814C53.3457 129.873 53.5907 129.914 53.841 129.941C53.9241 129.948 54.0065 129.959 54.0907 129.966C54.406 129.983 54.7243 129.98 55.045 129.944C55.0943 129.938 55.141 129.925 55.1884 129.918C55.3884 129.89 55.5882 129.861 55.7865 129.812L85.5287 122.299C88.5184 121.541 90.345 118.501 89.5867 115.511C88.8265 112.522 85.7802 110.711 82.7817 111.469L63.9016 116.238L79.7941 78.3169L119.749 68.224L110.718 89.7707C109.526 92.6179 110.873 95.8881 113.726 97.0779C116.582 98.2635 119.861 96.917 121.056 94.0744L134.408 62.2184C134.485 62.0299 134.544 61.8368 134.601 61.6439C134.615 61.5983 134.635 61.5541 134.648 61.5065C134.731 61.1955 134.781 60.882 134.81 60.5681C134.816 60.4845 134.817 60.4012 134.822 60.3185C134.833 60.0677 134.828 59.8201 134.805 59.5712C134.798 59.4862 134.795 59.4029 134.783 59.3177C134.74 59.0063 134.676 58.698 134.581 58.3972C134.562 58.3358 134.534 58.2772 134.511 58.2157C134.424 57.9664 134.319 57.7249 134.195 57.4885C134.152 57.4041 134.107 57.321 134.058 57.2387C133.89 56.9527 133.703 56.6751 133.481 56.418L95.5378 12.5357C94.1517 10.9326 91.9788 10.2494 89.9209 10.7679L36.3896 24.2906C36.3397 24.3023 36.2977 24.3302 36.2498 24.3446C35.9638 24.4234 35.6876 24.5347 35.4145 24.6623C35.3154 24.7082 35.2119 24.7394 35.118 24.7913C34.7624 24.9813 34.4223 25.2034 34.1052 25.4763C33.7881 25.7489 33.5163 26.0526 33.2778 26.3733C33.2114 26.4593 33.1638 26.5578 33.105 26.6479C32.9397 26.8973 32.7882 27.1535 32.6667 27.425C32.6455 27.4698 32.6117 27.5073 32.5928 27.5547L11.2993 78.3614C10.4822 80.3148 10.8401 82.5586 12.2261 84.1617L50.1697 128.044C50.3916 128.301 50.6395 128.526 50.8988 128.734Z" fill="#595959"/>
</g>
</g>
</g>
</g>
</g>
</g>
<defs>
<clipPath id="clip0_42_291">
<rect width="153" height="162" fill="white" transform="translate(0.962402 10.0732) rotate(-3.67727)"/>
</clipPath>
</defs>
</svg>
