<svg width="135" height="107" viewBox="0 0 135 107" fill="none" xmlns="http://www.w3.org/2000/svg">
<g id="binary" clip-path="url(#clip0_28_44)">
<g id="b2">
<path id="Vector" d="M21.0561 33.755C21.142 33.774 21.2285 33.7885 21.3162 33.7982C21.4036 33.8079 21.4915 33.8132 21.5796 33.8135C21.6678 33.8141 21.7559 33.8101 21.8441 33.8014C21.9323 33.7927 22.0199 33.7793 22.107 33.7615C22.1942 33.7438 22.2805 33.7213 22.3657 33.6943C22.451 33.6677 22.5351 33.6364 22.6179 33.6009C22.7006 33.5653 22.7816 33.5256 22.861 33.4815C22.9403 33.4376 23.0175 33.3898 23.0925 33.3377C23.1675 33.2859 23.2403 33.2303 23.3105 33.1709C23.3808 33.1115 23.4482 33.0486 23.5128 32.9825C23.5775 32.916 23.639 32.8467 23.6973 32.7743C23.7558 32.7017 23.8107 32.6264 23.8625 32.5483C23.9141 32.4702 23.9622 32.3898 24.0066 32.3069C24.051 32.2242 24.0915 32.1391 24.1281 32.0524C24.1648 31.9655 24.1976 31.877 24.2263 31.7871C24.2548 31.6968 24.2793 31.6057 24.2996 31.5135L29.2658 8.95972C29.2862 8.8672 29.3022 8.77423 29.3142 8.68062C29.326 8.58672 29.3333 8.49284 29.3366 8.39856C29.3398 8.30428 29.3387 8.21031 29.3332 8.11637C29.3277 8.02267 29.3179 7.92928 29.3039 7.83674C29.2897 7.74415 29.2714 7.65293 29.2488 7.5625C29.2263 7.47212 29.1996 7.38331 29.1688 7.2961C29.138 7.20866 29.1032 7.12335 29.0643 7.04014C29.0256 6.95673 28.9829 6.87571 28.9366 6.79692C28.8903 6.71837 28.8404 6.64254 28.7869 6.56919C28.7333 6.49608 28.6765 6.42602 28.6165 6.35877C28.5562 6.29172 28.493 6.2283 28.4268 6.16799C28.3608 6.10772 28.2919 6.05132 28.2202 5.99861C28.1487 5.94566 28.0748 5.89673 27.9984 5.85201C27.922 5.80704 27.8438 5.7662 27.7635 5.72966C27.6834 5.69318 27.6014 5.66105 27.518 5.63313C27.4343 5.60517 27.3497 5.58176 27.2639 5.56286C27.1778 5.54391 27.0912 5.52961 27.0038 5.51991C26.9161 5.51016 26.8284 5.50493 26.7402 5.50434C26.6519 5.50376 26.5638 5.50797 26.4756 5.5167C26.3877 5.52523 26.2999 5.53857 26.2127 5.55656C26.1256 5.57431 26.0395 5.59658 25.9541 5.62351C25.8687 5.65044 25.7847 5.68145 25.702 5.71703C25.6191 5.7528 25.5381 5.79251 25.459 5.83641C25.3796 5.8805 25.3025 5.92835 25.2272 5.98013C25.1522 6.03221 25.0794 6.0878 25.0093 6.14725C24.9392 6.20645 24.8716 6.26922 24.8069 6.33565C24.7423 6.40184 24.681 6.47126 24.6224 6.54381C24.5639 6.61637 24.509 6.69148 24.4572 6.76954C24.4057 6.84765 24.3575 6.92827 24.3134 7.01102C24.2689 7.09396 24.2283 7.17875 24.1916 7.26566C24.1549 7.35258 24.1224 7.44091 24.0936 7.53108C24.0649 7.62101 24.0404 7.71211 24.0201 7.80463L19.0539 30.3584C19.0335 30.4507 19.0175 30.5436 19.0057 30.6375C18.994 30.7312 18.9864 30.8253 18.9831 30.9195C18.98 31.0136 18.9812 31.1078 18.9867 31.2015C18.992 31.2954 19.0019 31.3886 19.0159 31.4811C19.0301 31.5737 19.0483 31.6652 19.071 31.7556C19.0936 31.8458 19.1202 31.9346 19.1509 32.022C19.1818 32.1092 19.2167 32.1946 19.2554 32.278C19.2941 32.3614 19.3368 32.4424 19.3831 32.5209C19.4296 32.5998 19.4795 32.6756 19.5331 32.7487C19.5864 32.822 19.6432 32.8921 19.7035 32.9591C19.7636 33.0261 19.8267 33.0898 19.893 33.1499C19.9592 33.2102 20.0278 33.2668 20.0995 33.3195C20.1711 33.3722 20.2452 33.4212 20.3213 33.4661C20.3977 33.5111 20.476 33.5517 20.5563 33.5882C20.6366 33.625 20.7183 33.6571 20.802 33.685C20.8854 33.7129 20.97 33.7361 21.0561 33.755Z" fill="#595959"/>
</g>
<g id="b3">
<path id="Vector_2" d="M56.1153 11.9158C55.9436 11.878 55.7711 11.8448 55.5977 11.8161C55.4242 11.7875 55.25 11.7632 55.0752 11.7438C54.9002 11.7241 54.7248 11.7091 54.5492 11.6989C54.3733 11.6885 54.1973 11.6829 54.0208 11.6818C53.8445 11.6807 53.6682 11.6843 53.4917 11.6924C53.3153 11.7006 53.139 11.7135 52.9628 11.7308C52.7869 11.7483 52.6112 11.7702 52.4358 11.7967C52.2605 11.8234 52.0857 11.8545 51.9114 11.8903C51.7373 11.9258 51.5639 11.966 51.3913 12.0107C51.2187 12.0556 51.047 12.1048 50.8765 12.1585C50.7059 12.2121 50.5365 12.2701 50.3684 12.3326C50.2001 12.395 50.0335 12.4619 49.8682 12.533C49.7029 12.6039 49.539 12.6794 49.377 12.7588C49.2148 12.8385 49.0544 12.9223 48.896 13.01C48.7375 13.098 48.581 13.1897 48.4266 13.2856C48.2719 13.3817 48.1195 13.4814 47.9695 13.5853C47.8192 13.6889 47.6716 13.7966 47.5262 13.9079C47.3806 14.0193 47.2379 14.1344 47.0974 14.253C46.9572 14.3716 46.8195 14.4938 46.6845 14.6196C46.5497 14.7453 46.4175 14.8742 46.2885 15.0069C46.1593 15.1393 46.0331 15.2748 45.9099 15.4138C45.7868 15.5526 45.6669 15.6945 45.5501 15.8395C45.4333 15.9844 45.3199 16.1323 45.2098 16.283C45.0995 16.4336 44.9927 16.587 44.8896 16.743C44.7863 16.8989 44.6866 17.0576 44.5906 17.2187C44.4944 17.3797 44.4021 17.5428 44.3133 17.7084C44.2246 17.8741 44.1395 18.0419 44.0584 18.2117C43.9773 18.3816 43.9002 18.5533 43.8267 18.7269C43.7534 18.9005 43.6841 19.0759 43.6187 19.253C43.5534 19.4299 43.4918 19.6083 43.4346 19.7885C43.3773 19.9683 43.3243 20.1497 43.2752 20.3321C43.2261 20.5146 43.1813 20.6979 43.1407 20.8825L41.8991 26.5209C41.8585 26.7055 41.8221 26.891 41.79 27.0771C41.7579 27.2633 41.7298 27.4502 41.7063 27.6375C41.6826 27.8248 41.6635 28.0125 41.6485 28.2007C41.6335 28.3889 41.6227 28.577 41.6163 28.7653C41.6101 28.9539 41.6079 29.1422 41.6102 29.3304C41.6125 29.5184 41.6193 29.7063 41.6301 29.8939C41.6411 30.0816 41.6563 30.2686 41.676 30.4552C41.6955 30.6416 41.7194 30.8273 41.7476 31.0125C41.7756 31.1973 41.808 31.3814 41.8449 31.5644C41.8815 31.7474 41.9224 31.929 41.9675 32.1098C42.0126 32.2904 42.0618 32.4693 42.1152 32.6472C42.1687 32.8248 42.2262 33.0011 42.2879 33.1755C42.3493 33.3499 42.4151 33.5224 42.4846 33.6933C42.5543 33.8639 42.628 34.0327 42.7053 34.1995C42.783 34.3661 42.8641 34.5305 42.9496 34.6925C43.0347 34.8548 43.1235 35.0143 43.2163 35.1717C43.3089 35.3288 43.4053 35.4835 43.5051 35.6354C43.6051 35.7873 43.7086 35.9365 43.8155 36.0827C43.9224 36.2291 44.0327 36.3725 44.1466 36.5127C44.2601 36.653 44.3772 36.7901 44.4974 36.9241C44.6175 37.0581 44.7407 37.1888 44.8672 37.3159C44.9935 37.4433 45.1229 37.5672 45.2551 37.6876C45.3874 37.8079 45.5225 37.9246 45.6604 38.0377C45.7982 38.1507 45.9387 38.26 46.0817 38.3656C46.2247 38.4713 46.3704 38.573 46.5184 38.6706C46.6664 38.7683 46.8166 38.8622 46.9689 38.9518C47.1215 39.0417 47.2761 39.1272 47.4328 39.2087C47.5895 39.2902 47.748 39.3676 47.9085 39.4406C48.0691 39.5139 48.2312 39.5825 48.3952 39.647C48.5589 39.7115 48.7243 39.7715 48.8913 39.8274C49.0582 39.883 49.2264 39.9344 49.3959 39.9812C49.5653 40.0281 49.7359 40.0702 49.9076 40.108C50.0793 40.1458 50.2519 40.1793 50.4254 40.2079C50.5989 40.2366 50.7732 40.2606 50.9479 40.2803C51.1227 40.2997 51.2981 40.3146 51.4739 40.325C51.6498 40.3353 51.8258 40.3411 52.0021 40.342C52.1786 40.3432 52.355 40.3395 52.5314 40.3314C52.7078 40.3233 52.8839 40.3105 53.0601 40.293C53.2362 40.2757 53.4119 40.2536 53.5873 40.2272C53.7626 40.2007 53.9373 40.1695 54.1117 40.1338C54.2858 40.098 54.4592 40.0578 54.6318 40.0131C54.8044 39.9684 54.976 39.9193 55.1466 39.8656C55.3172 39.812 55.4866 39.7538 55.6547 39.6913C55.8227 39.629 55.9896 39.5622 56.1549 39.4911C56.3202 39.4199 56.4841 39.3447 56.6461 39.265C56.8083 39.1856 56.9685 39.1018 57.1271 39.0141C57.2856 38.9261 57.4421 38.8341 57.5965 38.7382C57.7511 38.6423 57.9034 38.5424 58.0536 38.4388C58.2037 38.3349 58.3515 38.2274 58.4969 38.116C58.6423 38.0047 58.7852 37.8897 58.9256 37.7711C59.0659 37.6522 59.2036 37.53 59.3384 37.4044C59.4734 37.2785 59.6054 37.1495 59.7346 37.0172C59.8638 36.8848 59.99 36.749 60.1132 36.6102C60.2361 36.4712 60.3562 36.3295 60.473 36.1846C60.5898 36.0394 60.7032 35.8918 60.8133 35.7411C60.9234 35.5904 61.0301 35.437 61.1334 35.2811C61.2368 35.1249 61.3364 34.9665 61.4325 34.8054C61.5287 34.6444 61.621 34.481 61.7099 34.3154C61.7985 34.1497 61.8834 33.9819 61.9644 33.8123C62.0458 33.6425 62.1229 33.4707 62.1962 33.2969C62.2697 33.1234 62.3389 32.9481 62.4044 32.771C62.4698 32.5939 62.5311 32.4154 62.5884 32.2356C62.6456 32.0557 62.6988 31.8744 62.7479 31.692C62.7969 31.5095 62.8418 31.3259 62.8824 31.1413L64.124 25.5029C64.1646 25.3183 64.201 25.1331 64.2331 24.9469C64.2652 24.7607 64.293 24.5739 64.3167 24.3866C64.3403 24.199 64.3596 24.0113 64.3746 23.8234C64.3896 23.6352 64.4004 23.4468 64.4066 23.2585C64.413 23.0701 64.4152 22.8819 64.4127 22.6936C64.4104 22.5054 64.4039 22.3175 64.393 22.1299C64.382 21.9422 64.3668 21.7554 64.3471 21.5689C64.3276 21.3824 64.3037 21.1965 64.2755 21.0116C64.2472 20.8267 64.2148 20.6427 64.1782 20.4597C64.1415 20.2767 64.1007 20.0948 64.0556 19.9143C64.0105 19.7337 63.9611 19.5545 63.9079 19.3769C63.8544 19.199 63.7969 19.023 63.7352 18.8486C63.6736 18.6739 63.608 18.5014 63.5383 18.3308C63.4688 18.1599 63.3952 17.9911 63.3177 17.8246C63.2401 17.658 63.1587 17.4935 63.0736 17.3313C62.9884 17.1693 62.8994 17.0095 62.8068 16.8524C62.714 16.695 62.6178 16.5406 62.5178 16.3884C62.418 16.2365 62.3145 16.0876 62.2076 15.9412C62.1005 15.7949 61.9904 15.6516 61.8766 15.5112C61.7629 15.3711 61.6459 15.2337 61.5257 15.0999C61.4056 14.9659 61.2822 14.8352 61.1559 14.7079C61.0296 14.5806 60.9002 14.4568 60.768 14.3365C60.6357 14.2162 60.5006 14.0994 60.3628 13.9862C60.2249 13.8731 60.0844 13.7638 59.9414 13.6584C59.7982 13.5528 59.6527 13.4511 59.5048 13.3532C59.3568 13.2555 59.2065 13.1619 59.054 13.072C58.9014 12.9824 58.747 12.8966 58.5903 12.8151C58.4336 12.7336 58.2751 12.6562 58.1144 12.5832C57.954 12.5101 57.7919 12.4413 57.628 12.3768C57.464 12.3123 57.2986 12.2522 57.1318 12.1967C56.965 12.1408 56.7967 12.0897 56.6272 12.0428C56.4577 11.996 56.287 11.9536 56.1153 11.9158ZM57.6364 29.9862C57.6161 30.0785 57.5938 30.1703 57.5693 30.2617C57.5447 30.3528 57.5182 30.4434 57.4896 30.5333C57.4609 30.6233 57.4302 30.7125 57.3976 30.8011C57.3648 30.8896 57.3303 30.9773 57.2934 31.0641C57.2568 31.1508 57.2182 31.2368 57.1776 31.3216C57.1371 31.4067 57.0946 31.4905 57.0502 31.5732C57.0059 31.6562 56.9597 31.7378 56.9115 31.8184C56.8637 31.8988 56.8137 31.978 56.7622 32.0561C56.7104 32.1342 56.6571 32.2107 56.6021 32.2863C56.5469 32.3616 56.4902 32.4353 56.4319 32.5079C56.3735 32.5802 56.3134 32.6512 56.252 32.7208C56.1904 32.7902 56.1274 32.858 56.0627 32.9242C55.9981 32.9904 55.932 33.0549 55.8646 33.1178C55.7973 33.1806 55.7284 33.2418 55.6583 33.301C55.5879 33.3604 55.5166 33.4178 55.4438 33.4737C55.3712 33.5293 55.2972 33.5831 55.2221 33.6349C55.1471 33.6868 55.0709 33.7368 54.9937 33.7847C54.9165 33.8328 54.8381 33.8786 54.759 33.9225C54.6797 33.9666 54.5996 34.0083 54.5184 34.0482C54.4374 34.0879 54.3554 34.1256 54.2728 34.1612C54.1901 34.1968 54.1068 34.23 54.0228 34.2612C53.9385 34.2924 53.854 34.3216 53.7686 34.3485C53.6835 34.3752 53.5976 34.3998 53.5113 34.4223C53.4251 34.4445 53.3383 34.4646 53.2511 34.4826C53.164 34.5003 53.0767 34.5158 52.9891 34.5292C52.9013 34.5425 52.8135 34.5536 52.7254 34.5621C52.6374 34.5708 52.5492 34.5773 52.4612 34.5813C52.3728 34.5854 52.2847 34.5872 52.1965 34.5866C52.1082 34.586 52.0202 34.5832 51.9323 34.5782C51.8444 34.5729 51.7567 34.5654 51.6693 34.5557C51.5819 34.546 51.4948 34.5338 51.4082 34.5195C51.3213 34.5052 51.235 34.4884 51.1491 34.4695C51.0633 34.4506 50.9781 34.4296 50.8933 34.4062C50.8087 34.3828 50.7245 34.3572 50.6411 34.3293C50.5575 34.3013 50.4748 34.2713 50.393 34.2392C50.3111 34.2069 50.23 34.1724 50.1497 34.1359C50.0694 34.0994 49.9902 34.0608 49.9117 34.0199C49.8335 33.9793 49.7562 33.9364 49.6798 33.8914C49.6036 33.8468 49.5286 33.7998 49.4545 33.7509C49.3807 33.7019 49.3077 33.6512 49.2363 33.5985C49.1647 33.5456 49.0944 33.4909 49.0255 33.4345C48.9566 33.3779 48.889 33.3195 48.823 33.2595C48.7568 33.1992 48.6921 33.1372 48.629 33.0735C48.5658 33.0099 48.5042 32.9448 48.4441 32.8778C48.3838 32.8107 48.3255 32.7421 48.2687 32.672C48.2117 32.6017 48.1566 32.5302 48.1031 32.4569C48.0497 32.3838 47.9979 32.3093 47.948 32.2333C47.8981 32.1574 47.8499 32.08 47.8036 32.0014C47.7571 31.9228 47.7127 31.8429 47.67 31.7619C47.6275 31.6807 47.5869 31.5986 47.548 31.5152C47.5093 31.432 47.4725 31.3475 47.4377 31.2622C47.403 31.1769 47.3701 31.0905 47.3393 31.0033C47.3084 30.9161 47.2797 30.8281 47.2529 30.7393C47.2262 30.6502 47.2018 30.5606 47.1791 30.4705C47.1567 30.3801 47.1362 30.2894 47.1178 30.1979C47.0994 30.1061 47.0831 30.0143 47.0691 29.9218C47.0551 29.8292 47.0431 29.7364 47.0334 29.6433C47.0236 29.5499 47.0159 29.4565 47.0104 29.3625C47.0051 29.2689 47.0017 29.1749 47.0004 29.0806C46.9994 28.9867 47.0003 28.8924 47.0035 28.7983C47.0067 28.7041 47.012 28.61 47.0196 28.5159C47.027 28.4218 47.0367 28.3279 47.0486 28.2343C47.0604 28.1407 47.0744 28.0472 47.0904 27.9543C47.1065 27.8611 47.1246 27.7683 47.1449 27.676L48.3865 22.0376C48.4068 21.9453 48.4293 21.8535 48.4538 21.7624C48.4784 21.6711 48.5048 21.5807 48.5336 21.4905C48.562 21.4005 48.5927 21.3113 48.6255 21.2227C48.658 21.1344 48.6928 21.0466 48.7294 20.9599C48.7661 20.873 48.8048 20.7873 48.8453 20.7022C48.886 20.6174 48.9285 20.5335 48.9727 20.4506C49.0171 20.3679 49.0634 20.2861 49.1115 20.2057C49.1595 20.125 49.2094 20.0458 49.2609 19.9679C49.3125 19.8898 49.3658 19.8131 49.421 19.7378C49.4762 19.6625 49.5329 19.5886 49.5911 19.5162C49.6497 19.4436 49.7095 19.3726 49.7711 19.3033C49.8326 19.2339 49.8957 19.1661 49.9604 19.0997C50.025 19.0335 50.0911 18.9691 50.1585 18.9061C50.2259 18.8432 50.2947 18.7823 50.3648 18.7228C50.4352 18.6634 50.5065 18.606 50.5791 18.5504C50.6519 18.4948 50.7257 18.4409 50.8009 18.3891C50.876 18.337 50.9522 18.2872 51.0294 18.2391C51.1066 18.1913 51.185 18.1452 51.2641 18.1013C51.3434 18.0575 51.4235 18.0156 51.5047 17.9759C51.5857 17.9359 51.6674 17.8984 51.7503 17.8629C51.833 17.8273 51.9163 17.7939 52.0003 17.7626C52.0844 17.7314 52.1691 17.7023 52.2545 17.6756C52.3396 17.6488 52.4255 17.624 52.5118 17.6018C52.5981 17.5794 52.6848 17.5592 52.7719 17.5415C52.8588 17.5237 52.9465 17.5081 53.034 17.4947C53.1218 17.4816 53.2096 17.4705 53.2975 17.4617C53.3857 17.453 53.4738 17.4468 53.562 17.4425C53.6503 17.4386 53.7384 17.4367 53.8266 17.4372C53.9149 17.4378 54.0029 17.4406 54.0908 17.4459C54.1785 17.4509 54.2662 17.4584 54.3538 17.4681C54.4412 17.4781 54.5283 17.49 54.6149 17.5045C54.7018 17.5189 54.7879 17.5353 54.8738 17.5542C54.9596 17.5731 55.0449 17.5944 55.1298 17.6179C55.2145 17.6411 55.2986 17.6669 55.382 17.6945C55.4654 17.7225 55.5481 17.7525 55.6301 17.7848C55.7121 17.817 55.7931 17.8514 55.8734 17.8879C55.9538 17.9245 56.0329 17.9633 56.1114 18.0039C56.1896 18.0448 56.2669 18.0874 56.3431 18.1323C56.4195 18.1773 56.4945 18.2242 56.5686 18.273C56.6425 18.3219 56.7152 18.3728 56.7868 18.4255C56.8584 18.4783 56.9287 18.5329 56.9976 18.5896C57.0665 18.646 57.1341 18.7046 57.2001 18.7646C57.2664 18.8247 57.3308 18.8866 57.3942 18.9503C57.4573 19.014 57.5189 19.0793 57.579 19.1463C57.639 19.2133 57.6976 19.2817 57.7544 19.352C57.8114 19.4221 57.8665 19.4938 57.92 19.5669C57.9734 19.64 58.0252 19.7147 58.0751 19.7906C58.125 19.8666 58.1732 19.9439 58.2195 20.0226C58.2658 20.1012 58.3104 20.1811 58.3529 20.2621C58.3956 20.3431 58.4362 20.4252 58.4751 20.5086C58.5138 20.5921 58.5506 20.6763 58.5854 20.7616C58.6201 20.8472 58.653 20.9333 58.6839 21.0205C58.7146 21.108 58.7434 21.196 58.7702 21.2848C58.7967 21.3736 58.8214 21.4632 58.844 21.5536C58.8665 21.6438 58.8869 21.7347 58.9053 21.8262C58.9235 21.9177 58.9397 22.0097 58.9539 22.1023C58.968 22.1946 58.98 22.2875 58.9896 22.3808C58.9995 22.4739 59.0072 22.5676 59.0125 22.6613C59.018 22.7552 59.0214 22.8492 59.0225 22.9431C59.0237 23.0374 59.0226 23.1314 59.0194 23.2257C59.0164 23.3198 59.0109 23.414 59.0035 23.5079C58.9959 23.602 58.9862 23.6958 58.9745 23.7895C58.9627 23.8834 58.9487 23.9766 58.9327 24.0698C58.9166 24.1628 58.8983 24.2555 58.878 24.3478L57.6364 29.9862Z" fill="#595959"/>
</g>
<g id="b4">
<path id="Vector_3" d="M78.7595 46.461C78.8454 46.4799 78.9322 46.4945 79.0196 46.5042C79.1072 46.514 79.1949 46.5192 79.2832 46.5195C79.3714 46.5201 79.4595 46.5161 79.5477 46.5074C79.6357 46.4986 79.7235 46.4853 79.8104 46.4675C79.8976 46.4498 79.9839 46.4273 80.0693 46.4004C80.1546 46.3737 80.2387 46.3424 80.3213 46.3068C80.404 46.2713 80.485 46.2316 80.5644 46.1875C80.6437 46.1436 80.7208 46.0958 80.7961 46.0437C80.8711 45.9919 80.9437 45.9363 81.0141 45.8769C81.0842 45.8174 81.1516 45.7546 81.2162 45.6884C81.2808 45.622 81.3424 45.5526 81.4009 45.4803C81.4592 45.4077 81.5144 45.3324 81.5659 45.2543C81.6177 45.1762 81.6656 45.0958 81.71 45.0129C81.7544 44.9302 81.7951 44.8451 81.8317 44.7585C81.8684 44.6715 81.901 44.583 81.9297 44.493C81.9584 44.4029 81.9829 44.3118 82.0033 44.2195L86.9695 21.6657C86.9898 21.5732 87.0059 21.4803 87.0176 21.3866C87.0294 21.2927 87.037 21.1989 87.0402 21.1046C87.0434 21.0103 87.0421 20.9163 87.0366 20.8223C87.0311 20.7286 87.0215 20.6353 87.0073 20.5427C86.9933 20.4502 86.9748 20.3589 86.9524 20.2685C86.9297 20.1781 86.903 20.0893 86.8722 20.0021C86.8414 19.9146 86.8066 19.8293 86.7679 19.7462C86.729 19.6627 86.6865 19.5817 86.6403 19.5029C86.5937 19.4243 86.5438 19.3485 86.4903 19.2752C86.4367 19.2021 86.3799 19.132 86.3199 19.0647C86.2598 18.9977 86.1966 18.9343 86.1304 18.874C86.0642 18.8137 85.9953 18.7573 85.9236 18.7046C85.8523 18.6517 85.7782 18.6027 85.702 18.558C85.6256 18.5131 85.5474 18.4722 85.4671 18.4357C85.3868 18.3992 85.305 18.3671 85.2214 18.3391C85.138 18.3112 85.0531 18.2877 84.9673 18.2688C84.8814 18.2499 84.7948 18.2356 84.7071 18.2259C84.6197 18.2162 84.5318 18.2109 84.4436 18.2103C84.3556 18.2098 84.2672 18.2139 84.1792 18.2227C84.0911 18.2312 84.0035 18.2446 83.9163 18.2626C83.8292 18.2803 83.7429 18.3026 83.6575 18.3295C83.5723 18.3565 83.4883 18.3875 83.4054 18.423C83.3227 18.4588 83.2417 18.4985 83.1624 18.5424C83.083 18.5865 83.0059 18.6343 82.9309 18.6862C82.8556 18.7382 82.783 18.7938 82.7129 18.8533C82.6426 18.9124 82.5752 18.9752 82.5105 19.0417C82.4459 19.1079 82.3844 19.1772 82.3261 19.2498C82.2675 19.3224 82.2124 19.3975 82.1609 19.4756C82.1093 19.5537 82.0611 19.6343 82.0167 19.717C81.9723 19.7999 81.9319 19.8848 81.8952 19.9717C81.8585 20.0586 81.8258 20.1469 81.797 20.2371C81.7686 20.327 81.7441 20.4181 81.7237 20.5107L76.7575 43.0644C76.7372 43.1567 76.7211 43.2496 76.7091 43.3435C76.6974 43.4372 76.69 43.5313 76.6868 43.6256C76.6836 43.7196 76.6846 43.8138 76.6901 43.9075C76.6956 44.0015 76.7055 44.0946 76.7195 44.1871C76.7335 44.2797 76.7519 44.3712 76.7746 44.4616C76.797 44.5518 76.8238 44.6406 76.8546 44.728C76.8854 44.8152 76.9201 44.9005 76.959 44.984C76.9977 45.0674 77.0402 45.1484 77.0867 45.227C77.133 45.3057 77.1829 45.3816 77.2365 45.4547C77.29 45.528 77.3468 45.5981 77.4069 45.6651C77.4672 45.7322 77.5303 45.7958 77.5964 45.8558C77.6626 45.9162 77.7315 45.9728 77.8031 46.0255C77.8747 46.0782 77.9486 46.1272 78.0249 46.1721C78.1011 46.217 78.1796 46.2577 78.2597 46.2942C78.34 46.3309 78.422 46.3631 78.5054 46.391C78.589 46.4189 78.6737 46.4421 78.7595 46.461Z" fill="#595959"/>
</g>
<g id="b1">
<path id="Vector_4" d="M113.819 24.6218C113.647 24.584 113.475 24.5508 113.301 24.5221C113.128 24.4935 112.954 24.4692 112.779 24.4498C112.604 24.4301 112.429 24.4152 112.253 24.4048C112.077 24.3945 111.901 24.3889 111.725 24.3878C111.548 24.3867 111.372 24.3903 111.196 24.3985C111.019 24.4066 110.843 24.4195 110.667 24.4368C110.491 24.4543 110.315 24.4762 110.139 24.5026C109.964 24.5294 109.789 24.5605 109.615 24.5963C109.441 24.6318 109.268 24.6721 109.095 24.7167C108.922 24.7616 108.751 24.8108 108.58 24.8645C108.41 24.9181 108.24 24.9761 108.072 25.0385C107.904 25.101 107.737 25.1679 107.572 25.239C107.407 25.3099 107.243 25.3854 107.081 25.4648C106.919 25.5445 106.758 25.6283 106.6 25.716C106.441 25.804 106.285 25.8957 106.13 25.9916C105.976 26.0878 105.823 26.1874 105.673 26.2913C105.523 26.3949 105.375 26.5026 105.23 26.6138C105.084 26.7253 104.942 26.8403 104.801 26.959C104.661 27.0776 104.523 27.1998 104.388 27.3257C104.253 27.4513 104.121 27.5803 103.992 27.7129C103.863 27.8453 103.737 27.9809 103.614 28.1199C103.491 28.2586 103.371 28.4005 103.254 28.5455C103.137 28.6904 103.024 28.8383 102.913 28.9889C102.803 29.1396 102.697 29.293 102.593 29.4489C102.49 29.6049 102.39 29.7636 102.294 29.9246C102.198 30.0857 102.106 30.2488 102.017 30.4145C101.928 30.5801 101.843 30.7479 101.762 30.9177C101.681 31.0876 101.604 31.2593 101.531 31.4329C101.457 31.6065 101.388 31.7819 101.322 31.959C101.257 32.1359 101.196 32.3144 101.138 32.4945C101.081 32.6744 101.028 32.8556 100.979 33.0381C100.93 33.2206 100.885 33.404 100.845 33.5885L99.603 39.227C99.5623 39.4115 99.5259 39.597 99.4938 39.7832C99.4615 39.9693 99.4337 40.1562 99.41 40.3435C99.3865 40.5308 99.3671 40.7185 99.3521 40.9067C99.3371 41.0949 99.3265 41.283 99.3201 41.4714C99.3137 41.6599 99.3117 41.8482 99.314 42.0364C99.3163 42.2244 99.3229 42.4123 99.3339 42.6C99.3448 42.7876 99.3602 42.9746 99.3797 43.1611C99.3994 43.3477 99.4232 43.5334 99.4512 43.7184C99.4795 43.9033 99.5119 44.0874 99.5485 44.2704C99.5852 44.4533 99.6261 44.635 99.6711 44.8158C99.7162 44.9963 99.7657 45.1753 99.8191 45.3532C99.8725 45.5309 99.9298 45.7071 99.9915 45.8815C100.053 46.0559 100.119 46.2284 100.188 46.3993C100.258 46.5699 100.332 46.7387 100.409 46.9055C100.487 47.0721 100.568 47.2365 100.653 47.3985C100.738 47.5608 100.827 47.7203 100.92 47.8777C101.013 48.0348 101.109 48.1894 101.209 48.3414C101.309 48.4933 101.412 48.6425 101.519 48.7887C101.626 48.9351 101.737 49.0785 101.85 49.2186C101.964 49.359 102.081 49.4961 102.201 49.6301C102.321 49.7642 102.445 49.8948 102.571 50.0219C102.697 50.1493 102.827 50.2733 102.959 50.3936C103.091 50.5139 103.226 50.6306 103.364 50.7436C103.502 50.8567 103.642 50.966 103.786 51.0717C103.929 51.1773 104.074 51.2789 104.222 51.3766C104.37 51.4743 104.52 51.5682 104.673 51.6578C104.825 51.7477 104.98 51.8332 105.137 51.9147C105.293 51.9962 105.452 52.0736 105.612 52.1466C105.773 52.2199 105.935 52.2886 106.099 52.353C106.263 52.4175 106.428 52.4776 106.595 52.5334C106.762 52.589 106.93 52.6403 107.1 52.6872C107.269 52.7341 107.44 52.7762 107.611 52.814C107.783 52.8518 107.956 52.8853 108.129 52.914C108.303 52.9426 108.477 52.9666 108.652 52.9863C108.827 53.0057 109.002 53.0207 109.178 53.031C109.353 53.0413 109.53 53.0472 109.706 53.048C109.882 53.0492 110.059 53.0455 110.235 53.0374C110.411 53.0292 110.588 53.0165 110.764 52.999C110.94 52.9818 111.116 52.9597 111.291 52.9332C111.466 52.9067 111.641 52.8756 111.815 52.8398C111.99 52.804 112.163 52.7638 112.335 52.7191C112.508 52.6745 112.68 52.6253 112.85 52.5716C113.021 52.5179 113.19 52.4597 113.359 52.3973C113.527 52.335 113.693 52.2682 113.859 52.1971C114.024 52.1259 114.188 52.0506 114.35 51.971C114.512 51.8916 114.672 51.8078 114.831 51.72C114.989 51.632 115.146 51.5401 115.3 51.4442C115.455 51.3483 115.607 51.2484 115.757 51.1448C115.908 51.0409 116.055 50.9335 116.201 50.822C116.346 50.7108 116.489 50.5957 116.629 50.4771C116.77 50.3582 116.907 50.236 117.042 50.1104C117.177 49.9846 117.309 49.8556 117.438 49.7232C117.567 49.5908 117.694 49.455 117.817 49.3162C117.94 49.1772 118.06 49.0355 118.177 48.8906C118.293 48.7454 118.407 48.5978 118.517 48.4471C118.627 48.2965 118.734 48.1431 118.837 47.9871C118.94 47.8309 119.04 47.6724 119.136 47.5114C119.232 47.3504 119.325 47.1871 119.414 47.0214C119.502 46.8557 119.587 46.6879 119.668 46.5183C119.749 46.3485 119.827 46.1768 119.9 46.0029C119.973 45.8293 120.043 45.6541 120.108 45.4771C120.174 45.3 120.235 45.1215 120.292 44.9416C120.349 44.7617 120.403 44.5804 120.452 44.3979C120.501 44.2155 120.545 44.0319 120.586 43.8473L121.828 38.2089C121.868 38.0243 121.905 37.8391 121.937 37.6529C121.969 37.4668 121.997 37.2799 122.021 37.0926C122.044 36.9051 122.063 36.7173 122.078 36.5294C122.093 36.3412 122.104 36.1528 122.11 35.9645C122.117 35.7762 122.119 35.5879 122.117 35.3996C122.114 35.2114 122.108 35.0235 122.097 34.8359C122.086 34.6483 122.07 34.4614 122.051 34.2749C122.031 34.0884 122.007 33.9025 121.979 33.7176C121.951 33.5327 121.919 33.3487 121.882 33.1657C121.845 32.9827 121.804 32.8008 121.759 32.6202C121.714 32.4397 121.665 32.2605 121.612 32.0829C121.558 31.905 121.501 31.729 121.439 31.5546C121.377 31.3799 121.312 31.2074 121.242 31.0368C121.172 30.8659 121.099 30.6972 121.021 30.5306C120.944 30.364 120.863 30.1996 120.777 30.0373C120.692 29.8753 120.603 29.7155 120.51 29.5584C120.418 29.401 120.321 29.2466 120.222 29.0945C120.122 28.9425 120.018 28.7936 119.911 28.6471C119.804 28.501 119.694 28.3575 119.58 28.2172C119.467 28.077 119.35 27.9397 119.23 27.806C119.109 27.6719 118.986 27.5412 118.86 27.4139C118.733 27.2866 118.604 27.1628 118.472 27.0425C118.339 26.9221 118.204 26.8055 118.066 26.6922C117.929 26.5791 117.788 26.4698 117.645 26.3644C117.502 26.2588 117.357 26.1571 117.209 26.0592C117.061 25.9616 116.91 25.8679 116.758 25.778C116.605 25.6884 116.451 25.6026 116.294 25.5211C116.137 25.4396 115.979 25.3622 115.818 25.2892C115.658 25.2162 115.496 25.1473 115.332 25.0828C115.168 25.0183 115.002 24.9583 114.836 24.9027C114.669 24.8468 114.501 24.7957 114.331 24.7489C114.162 24.702 113.991 24.6596 113.819 24.6218ZM115.34 42.6922C115.32 42.7845 115.298 42.8763 115.273 42.9677C115.249 43.0588 115.222 43.1494 115.193 43.2394C115.165 43.3293 115.134 43.4186 115.101 43.5071C115.069 43.5956 115.034 43.6832 114.997 43.7702C114.961 43.8568 114.922 43.9428 114.881 44.0276C114.841 44.1126 114.798 44.1965 114.754 44.2792C114.71 44.3622 114.664 44.4438 114.615 44.5244C114.567 44.6048 114.518 44.6841 114.466 44.7621C114.414 44.8402 114.361 44.9167 114.306 44.9922C114.251 45.0676 114.194 45.1413 114.136 45.2139C114.077 45.2862 114.017 45.3572 113.956 45.4268C113.894 45.4962 113.831 45.5639 113.766 45.6301C113.702 45.6963 113.636 45.761 113.568 45.8237C113.501 45.8866 113.432 45.9478 113.362 46.007C113.292 46.0664 113.22 46.1238 113.148 46.1797C113.075 46.2353 113.001 46.2891 112.926 46.341C112.851 46.3928 112.775 46.4429 112.697 46.4907C112.62 46.5387 112.542 46.5846 112.463 46.6285C112.383 46.6726 112.303 46.7142 112.222 46.7542C112.141 46.7939 112.059 46.8316 111.977 46.8672C111.894 46.9028 111.81 46.9359 111.726 46.9672C111.642 46.9984 111.558 47.0275 111.472 47.0545C111.387 47.0812 111.301 47.1058 111.215 47.1282C111.129 47.1504 111.042 47.1706 110.955 47.1886C110.868 47.2064 110.781 47.2218 110.693 47.2351C110.605 47.2485 110.517 47.2595 110.429 47.2681C110.341 47.2769 110.253 47.2833 110.165 47.2873C110.077 47.2915 109.988 47.2931 109.9 47.2926C109.812 47.292 109.724 47.2892 109.636 47.2842C109.548 47.2789 109.461 47.2714 109.373 47.2617C109.286 47.252 109.199 47.2399 109.112 47.2255C109.025 47.2112 108.939 47.1945 108.853 47.1756C108.767 47.1567 108.682 47.1356 108.597 47.1122C108.512 47.0887 108.428 47.0632 108.345 47.0353C108.261 47.0073 108.179 46.9773 108.097 46.9452C108.015 46.9128 107.934 46.8784 107.853 46.8419C107.773 46.8054 107.694 46.7668 107.616 46.7259C107.537 46.6853 107.46 46.6424 107.384 46.5975C107.307 46.5528 107.232 46.5058 107.158 46.4569C107.084 46.4079 107.012 46.3572 106.94 46.3045C106.869 46.2516 106.798 46.1969 106.729 46.1405C106.66 46.0839 106.593 46.0255 106.527 45.9655C106.461 45.9052 106.396 45.8432 106.333 45.7795C106.269 45.7158 106.208 45.6507 106.148 45.5837C106.088 45.5167 106.029 45.4481 105.972 45.378C105.916 45.3077 105.86 45.2362 105.807 45.1629C105.753 45.0898 105.702 45.0154 105.652 44.9393C105.602 44.8634 105.554 44.786 105.507 44.7074C105.461 44.6289 105.417 44.549 105.374 44.4679C105.331 44.3867 105.291 44.3046 105.252 44.2212C105.213 44.138 105.176 44.0535 105.141 43.9682C105.107 43.8829 105.074 43.7965 105.043 43.7093C105.012 43.6221 104.984 43.5341 104.957 43.4453C104.93 43.3562 104.905 43.2666 104.883 43.1765C104.86 43.0861 104.84 42.9954 104.822 42.9039C104.803 42.8121 104.787 42.7204 104.773 42.6278C104.759 42.5352 104.747 42.4424 104.737 42.3493C104.727 42.2559 104.72 42.1625 104.714 42.0685C104.709 41.9748 104.706 41.8809 104.704 41.7867C104.703 41.6926 104.704 41.5984 104.707 41.5044C104.711 41.4101 104.716 41.316 104.723 41.2219C104.731 41.1278 104.741 41.034 104.752 40.9403C104.764 40.8466 104.778 40.7532 104.794 40.6602C104.81 40.567 104.828 40.4743 104.849 40.382L106.09 34.7436C106.111 34.6513 106.133 34.5595 106.157 34.4684C106.182 34.3771 106.209 34.2867 106.237 34.1965C106.266 34.1065 106.297 34.0173 106.329 33.9288C106.362 33.8404 106.397 33.7526 106.433 33.6659C106.47 33.579 106.508 33.4932 106.549 33.4082C106.59 33.3234 106.632 33.2395 106.677 33.1566C106.721 33.0739 106.767 32.992 106.815 32.9117C106.863 32.831 106.913 32.7518 106.965 32.674C107.016 32.5959 107.07 32.5191 107.125 32.4438C107.18 32.3685 107.237 32.2945 107.295 32.2222C107.353 32.1496 107.413 32.0786 107.475 32.0093C107.536 31.9399 107.6 31.8721 107.664 31.8057C107.729 31.7395 107.795 31.6751 107.862 31.612C107.93 31.5493 107.999 31.4883 108.069 31.4288C108.139 31.3694 108.21 31.312 108.283 31.2564C108.356 31.2008 108.43 31.1469 108.505 31.0951C108.58 31.0431 108.656 30.9932 108.733 30.9452C108.81 30.8973 108.889 30.8512 108.968 30.8074C109.047 30.7635 109.127 30.7216 109.208 30.6819C109.289 30.6419 109.371 30.6044 109.454 30.5688C109.537 30.5333 109.62 30.4998 109.704 30.4686C109.788 30.4374 109.873 30.4083 109.958 30.3816C110.043 30.3549 110.129 30.3301 110.216 30.3078C110.302 30.2854 110.389 30.2653 110.476 30.2475C110.563 30.2297 110.65 30.214 110.738 30.2007C110.825 30.1876 110.913 30.1765 111.001 30.1677C111.089 30.159 111.177 30.1527 111.266 30.1486C111.354 30.1446 111.442 30.1427 111.53 30.1432C111.619 30.1438 111.707 30.1466 111.794 30.1519C111.882 30.1569 111.97 30.1644 112.057 30.1741C112.145 30.1841 112.232 30.196 112.319 30.2105C112.405 30.2248 112.492 30.2414 112.578 30.2603C112.663 30.2792 112.749 30.3005 112.833 30.3239C112.918 30.3471 113.002 30.3729 113.086 30.4006C113.169 30.4285 113.252 30.4585 113.334 30.4909C113.416 30.523 113.497 30.5574 113.577 30.5939C113.657 30.6305 113.737 30.6693 113.815 30.7099C113.893 30.7508 113.971 30.7934 114.047 30.8384C114.123 30.8833 114.198 30.9302 114.272 30.9789C114.346 31.0279 114.419 31.0789 114.491 31.1316C114.562 31.1842 114.632 31.2389 114.701 31.2955C114.77 31.3519 114.838 31.4105 114.904 31.4706C114.97 31.5306 115.035 31.5926 115.098 31.6563C115.161 31.7199 115.223 31.7853 115.283 31.8523C115.343 31.9193 115.401 31.9878 115.458 32.0581C115.515 32.1281 115.57 32.1998 115.624 32.2729C115.677 32.346 115.729 32.4207 115.779 32.4965C115.829 32.5727 115.877 32.6498 115.923 32.7287C115.97 32.8072 116.014 32.8871 116.057 32.9681C116.099 33.0491 116.14 33.1312 116.179 33.2146C116.217 33.298 116.254 33.3823 116.289 33.4676C116.324 33.5532 116.357 33.6393 116.387 33.7265C116.418 33.8139 116.447 33.902 116.474 33.9908C116.501 34.0796 116.525 34.1692 116.548 34.2596C116.57 34.3498 116.591 34.4407 116.609 34.5322C116.627 34.6237 116.644 34.7157 116.658 34.8083C116.672 34.9006 116.684 34.9934 116.694 35.0868C116.703 35.18 116.711 35.2736 116.716 35.3673C116.722 35.4612 116.725 35.5552 116.726 35.6492C116.728 35.7434 116.726 35.8374 116.723 35.9317C116.72 36.0257 116.715 36.1201 116.707 36.2139C116.7 36.308 116.69 36.4019 116.678 36.4955C116.666 36.5894 116.653 36.6826 116.637 36.7758C116.62 36.8688 116.602 36.9615 116.582 37.0538L115.34 42.6922Z" fill="#595959"/>
</g>
<g id="b3_2">
<path id="Vector_5" d="M112.757 66.9164C112.67 66.8974 112.584 66.8829 112.496 66.8732C112.409 66.8634 112.321 66.8582 112.233 66.8576C112.145 66.8573 112.057 66.8612 111.968 66.87C111.88 66.8787 111.793 66.8918 111.705 66.9098C111.618 66.9276 111.532 66.9501 111.447 66.9768C111.361 67.0037 111.277 67.035 111.195 67.0705C111.112 67.1061 111.031 67.1458 110.952 67.1897C110.872 67.2338 110.795 67.2816 110.72 67.3337C110.645 67.3855 110.572 67.4411 110.502 67.5005C110.432 67.56 110.364 67.6227 110.3 67.6889C110.235 67.7551 110.174 67.8245 110.115 67.8971C110.057 67.9696 110.002 68.045 109.95 68.1231C109.898 68.2012 109.85 68.2815 109.806 68.3645C109.762 68.4472 109.721 68.532 109.684 68.6189C109.648 68.7059 109.615 68.7944 109.586 68.8844C109.558 68.9745 109.533 69.0656 109.513 69.1579L104.547 91.7117C104.526 91.8039 104.51 91.8972 104.498 91.9908C104.486 92.0847 104.479 92.1785 104.476 92.2728C104.473 92.3671 104.474 92.4611 104.479 92.5551C104.485 92.6487 104.495 92.7421 104.509 92.8346C104.523 92.927 104.541 93.0185 104.564 93.1089C104.586 93.1993 104.613 93.2881 104.644 93.3753C104.674 93.4625 104.709 93.5478 104.748 93.6312C104.787 93.7147 104.83 93.7957 104.876 93.8745C104.922 93.9531 104.972 94.0289 105.026 94.1022C105.079 94.1753 105.136 94.2454 105.196 94.3124C105.256 94.3794 105.319 94.4431 105.386 94.5034C105.452 94.5634 105.521 94.6201 105.592 94.6728C105.664 94.7257 105.738 94.7744 105.814 94.8194C105.89 94.8643 105.969 94.9052 106.049 94.9417C106.129 94.9783 106.211 95.0103 106.295 95.0383C106.378 95.0662 106.463 95.0896 106.549 95.1086C106.635 95.1275 106.721 95.1418 106.809 95.1515C106.896 95.1612 106.984 95.1665 107.072 95.167C107.161 95.1676 107.249 95.1634 107.337 95.1547C107.425 95.146 107.513 95.1328 107.6 95.1148C107.687 95.0971 107.773 95.0746 107.858 95.0479C107.944 95.0209 108.028 94.9897 108.11 94.9541C108.193 94.9186 108.274 94.8789 108.354 94.835C108.433 94.7909 108.51 94.7431 108.585 94.6913C108.66 94.6392 108.733 94.5836 108.803 94.5241C108.874 94.4647 108.941 94.4019 109.006 94.3357C109.07 94.2696 109.132 94.2002 109.19 94.1276C109.249 94.055 109.303 93.9797 109.355 93.9018C109.407 93.8237 109.455 93.7431 109.499 93.6604C109.544 93.5774 109.584 93.4926 109.621 93.4057C109.658 93.3188 109.69 93.2305 109.719 93.1403C109.748 93.0504 109.772 92.959 109.792 92.8668L114.759 70.313C114.779 70.2207 114.795 70.1275 114.807 70.0339C114.819 69.9402 114.826 69.8461 114.829 69.7518C114.833 69.6576 114.831 69.5635 114.826 69.4699C114.82 69.3759 114.811 69.2828 114.797 69.1903C114.782 69.0977 114.764 69.0062 114.742 68.9158C114.719 68.8254 114.692 68.7366 114.662 68.6494C114.631 68.5622 114.596 68.4769 114.557 68.3934C114.518 68.31 114.476 68.229 114.429 68.1504C114.383 68.0717 114.333 67.9958 114.28 67.9225C114.226 67.8494 114.169 67.7793 114.109 67.7122C114.049 67.6452 113.986 67.5816 113.92 67.5213C113.854 67.4612 113.785 67.4046 113.713 67.3519C113.641 67.2989 113.568 67.2502 113.491 67.2053C113.415 67.1603 113.336 67.1197 113.256 67.0832C113.176 67.0464 113.094 67.0143 113.011 66.9864C112.927 66.9584 112.842 66.9353 112.757 66.9164Z" fill="#595959"/>
</g>
<path id="b2_2" d="M91.9131 74.1504C91.9537 73.9658 91.9901 73.7804 92.0222 73.5942C92.0544 73.408 92.0824 73.2212 92.1059 73.0339C92.1296 72.8466 92.1489 72.6589 92.164 72.4707C92.179 72.2825 92.1895 72.0943 92.1959 71.906C92.2024 71.7174 92.2043 71.5291 92.2021 71.3409C92.1998 71.1527 92.193 70.965 92.1821 70.7774C92.1711 70.5898 92.1559 70.4027 92.1362 70.2162C92.1167 70.0297 92.0928 69.844 92.0646 69.6589C92.0366 69.474 92.0042 69.29 91.9673 69.107C91.9307 68.924 91.8898 68.7421 91.8447 68.5615C91.7996 68.381 91.7505 68.2018 91.697 68.0241C91.6435 67.8465 91.586 67.6702 91.5244 67.4958C91.4629 67.3215 91.3972 67.1487 91.3277 66.9781C91.258 66.8072 91.1843 66.6387 91.1069 66.4718C91.0293 66.3052 90.9481 66.1408 90.8629 65.9788C90.7775 65.8166 90.6887 65.657 90.596 65.4996C90.5034 65.3425 90.407 65.1879 90.3071 65.036C90.2071 64.884 90.1036 64.7348 89.9968 64.5884C89.8898 64.4423 89.7795 64.2988 89.6657 64.1587C89.5521 64.0183 89.4352 63.8813 89.3148 63.7472C89.1947 63.6132 89.0715 63.4825 88.945 63.3552C88.8188 63.2278 88.6894 63.1041 88.5571 62.9838C88.4249 62.8634 88.2897 62.7467 88.1519 62.6337C88.014 62.5207 87.8735 62.4113 87.7305 62.3057C87.5876 62.2001 87.4419 62.0984 87.2939 62.0007C87.1459 61.9028 86.9958 61.8092 86.8433 61.7193C86.6908 61.6297 86.5361 61.5441 86.3794 61.4626C86.2228 61.3809 86.0642 61.3037 85.9037 61.2307C85.7433 61.1575 85.581 61.0888 85.4171 61.0243C85.2533 60.9598 85.0879 60.8998 84.9209 60.8439C84.7541 60.7883 84.5858 60.737 84.4163 60.6901C84.2469 60.6432 84.0763 60.6012 83.9046 60.5634C83.7329 60.5255 83.5603 60.492 83.3868 60.4634C83.2133 60.4347 83.0391 60.4107 82.8643 60.3911C82.6895 60.3717 82.5142 60.3567 82.3383 60.3464C82.1624 60.336 81.9865 60.3302 81.8101 60.3293C81.6336 60.3282 81.4573 60.3316 81.281 60.34C81.1046 60.3481 80.9283 60.3608 80.7522 60.3781C80.576 60.3956 80.4003 60.4175 80.2249 60.4442C80.0496 60.4707 79.8749 60.5018 79.7005 60.5375C79.5264 60.5733 79.353 60.6135 79.1804 60.6582C79.0079 60.7029 78.8364 60.7521 78.6658 60.8058C78.495 60.8594 78.3259 60.9174 78.1576 60.9798C77.9895 61.0423 77.8226 61.1091 77.6573 61.1803C77.492 61.2514 77.3284 61.3267 77.1661 61.4063C77.0041 61.4858 76.8438 61.5696 76.6853 61.6573C76.5266 61.7453 76.3701 61.8372 76.2157 61.9331C76.0611 62.029 75.9088 62.1289 75.7586 62.2325C75.6085 62.3365 75.4607 62.4439 75.3153 62.5554C75.1699 62.6666 75.027 62.7816 74.8868 62.9003C74.7463 63.0191 74.6086 63.1411 74.4738 63.267C74.3389 63.3925 74.2068 63.5218 74.0776 63.6542C73.9484 63.7865 73.8222 63.9223 73.6993 64.0611C73.5761 64.1999 73.456 64.3418 73.3392 64.4867C73.2225 64.6317 73.109 64.7796 72.9989 64.9302C72.8888 65.0809 72.7821 65.2343 72.6788 65.3902C72.5754 65.5464 72.4758 65.7049 72.3797 65.8659C72.2837 66.027 72.1912 66.1903 72.1026 66.356C72.0137 66.5216 71.9289 66.6892 71.8478 66.859C71.7667 67.0289 71.6893 67.2006 71.616 67.3744C71.5427 67.548 71.4733 67.7232 71.4079 67.9003C71.3424 68.0774 71.2812 68.2559 71.2238 68.4357C71.1666 68.6157 71.1134 68.7969 71.0643 68.9794C71.0155 69.1619 70.9706 69.3455 70.93 69.53L69.6884 75.1685C69.6478 75.353 69.6115 75.5383 69.5791 75.7244C69.547 75.9106 69.5192 76.0975 69.4955 76.2847C69.472 76.4723 69.4526 76.66 69.4376 76.848C69.4226 77.0362 69.412 77.2243 69.4056 77.4129C69.3992 77.6012 69.3972 77.7895 69.3995 77.9777C69.4018 78.1659 69.4083 78.3539 69.4194 78.5415C69.4303 78.7288 69.4457 78.9159 69.4652 79.1024C69.4846 79.2889 69.5085 79.4748 69.5367 79.6597C69.565 79.8446 69.5974 80.0287 69.634 80.2116C69.6707 80.3946 69.7115 80.5765 69.7566 80.7571C69.8017 80.9376 69.8511 81.1169 69.9046 81.2945C69.9578 81.4723 70.0153 81.6484 70.077 81.8228C70.1387 81.9972 70.2042 82.1699 70.2739 82.3406C70.3434 82.5114 70.4171 82.6802 70.4947 82.8468C70.5721 83.0134 70.6535 83.1778 70.7386 83.34C70.8239 83.502 70.9128 83.6619 71.0054 83.819C71.0982 83.9763 71.1944 84.1307 71.2944 84.2827C71.3942 84.4348 71.4977 84.5838 71.6048 84.7302C71.7117 84.8764 71.8221 85.0198 71.9357 85.1602C72.0495 85.3003 72.1663 85.4376 72.2865 85.5714C72.4066 85.7054 72.5301 85.8361 72.6563 85.9634C72.7828 86.0908 72.912 86.2145 73.0443 86.3348C73.1767 86.4552 73.3117 86.5719 73.4495 86.6849C73.5873 86.7982 73.7278 86.9075 73.8708 87.0129C74.014 87.1186 74.1595 87.2202 74.3075 87.3179C74.4554 87.4158 74.6057 87.5095 74.7583 87.5993C74.9108 87.689 75.0654 87.7748 75.2221 87.8563C75.3786 87.9377 75.5372 88.0149 75.6978 88.0882C75.8582 88.1612 76.0203 88.2301 76.1843 88.2943C76.3483 88.3588 76.5136 88.4191 76.6805 88.4747C76.8472 88.5305 77.0155 88.5816 77.185 88.6285C77.3545 88.6754 77.5252 88.7177 77.6969 88.7555C77.8686 88.7933 78.0411 88.8265 78.2146 88.8552C78.388 88.8838 78.5622 88.9081 78.7371 88.9275C78.9121 88.9472 79.0874 88.962 79.2631 88.9722C79.4389 88.9828 79.6151 88.9884 79.7914 88.9896C79.9677 88.9904 80.1441 88.987 80.3205 88.9789C80.4969 88.9708 80.6733 88.9578 80.8494 88.9406C81.0253 88.923 81.201 88.9011 81.3764 88.8744C81.5518 88.8479 81.7267 88.8169 81.9008 88.7811C82.0749 88.7455 82.2483 88.7053 82.4209 88.6604C82.5935 88.6157 82.7652 88.5665 82.9357 88.5129C83.1063 88.4592 83.2757 88.4013 83.4438 88.3388C83.6121 88.2763 83.7788 88.2095 83.9441 88.1383C84.1095 88.0675 84.2732 87.9919 84.4352 87.9125C84.5975 87.8329 84.7578 87.7491 84.9163 87.6613C85.0747 87.5733 85.2312 87.4816 85.3859 87.3855C85.5403 87.2896 85.6927 87.19 85.8428 87.0861C85.993 86.9824 86.1406 86.8747 86.2862 86.7635C86.4316 86.6521 86.5743 86.537 86.7148 86.4184C86.855 86.2997 86.9927 86.1775 87.1278 86.0517C87.2625 85.9261 87.3948 85.7969 87.5237 85.6644C87.653 85.5321 87.7791 85.3965 87.9023 85.2575C88.0255 85.1188 88.1453 84.9768 88.2621 84.8319C88.3789 84.6869 88.4924 84.539 88.6024 84.3884C88.7128 84.2378 88.8195 84.0843 88.9226 83.9284C89.0259 83.7724 89.1256 83.6137 89.2216 83.4527C89.3178 83.2917 89.4102 83.1283 89.499 82.9629C89.5876 82.7972 89.6727 82.6295 89.7538 82.4596C89.8349 82.2898 89.9122 82.1181 89.9855 81.9445C90.0589 81.7706 90.1283 81.5954 90.1937 81.4183C90.2591 81.2415 90.3204 81.063 90.3776 80.8829C90.4349 80.703 90.488 80.5217 90.537 80.3392C90.5861 80.1568 90.6309 79.9734 90.6715 79.7888L91.9131 74.1504ZM85.4258 78.6338C85.4054 78.726 85.383 78.8176 85.3584 78.9089C85.3341 79.0001 85.3074 79.0907 85.2789 79.1807C85.2502 79.2708 85.2195 79.3601 85.1868 79.4484C85.1542 79.5369 85.1194 79.6248 85.0828 79.7114C85.0461 79.7984 85.0074 79.8841 84.9669 79.9691C84.9262 80.0539 84.8839 80.1378 84.8395 80.2208C84.7951 80.3035 84.7488 80.385 84.7009 80.4657C84.6528 80.5461 84.6028 80.6255 84.5513 80.7034C84.4997 80.7815 84.4464 80.8582 84.3912 80.9335C84.3361 81.0088 84.2793 81.0828 84.2211 81.1551C84.1625 81.2277 84.1027 81.2987 84.0412 81.3681C83.9796 81.4375 83.9165 81.5052 83.8519 81.5714C83.7872 81.6379 83.7214 81.7023 83.6538 81.765C83.5864 81.8281 83.5175 81.8891 83.4474 81.9485C83.3773 82.0077 83.3057 82.0653 83.2331 82.121C83.1603 82.1766 83.0865 82.2304 83.0113 82.2822C82.9362 82.3343 82.86 82.3841 82.7828 82.4322C82.7056 82.48 82.6272 82.5261 82.5481 82.57C82.4688 82.6138 82.3887 82.6558 82.3077 82.6955C82.2265 82.7351 82.1448 82.7729 82.0621 82.8085C81.9793 82.844 81.8959 82.8775 81.8119 82.9087C81.7279 82.94 81.6432 82.9688 81.5578 82.9957C81.4726 83.0225 81.3868 83.0471 81.3005 83.0695C81.2142 83.092 81.1274 83.1121 81.0403 83.1298C80.9534 83.1476 80.866 83.1633 80.7782 83.1764C80.6907 83.1898 80.6027 83.2008 80.5147 83.2096C80.4265 83.2181 80.3384 83.2246 80.2502 83.2288C80.1619 83.2327 80.0738 83.2347 79.9856 83.2341C79.8976 83.2336 79.8093 83.2307 79.7216 83.2255C79.6337 83.2204 79.546 83.2129 79.4587 83.203C79.371 83.1933 79.2841 83.1812 79.1973 83.1668C79.1107 83.1525 79.0243 83.136 78.9384 83.1171C78.8526 83.0982 78.7673 83.0769 78.6824 83.0534C78.5978 83.03 78.5136 83.0045 78.4302 82.9766C78.3468 82.9489 78.2641 82.9189 78.1821 82.8865C78.1001 82.8544 78.0191 82.8199 77.9388 82.7834C77.8587 82.7469 77.7793 82.7081 77.7011 82.6675C77.6226 82.6266 77.5453 82.5837 77.4691 82.539C77.3927 82.494 77.3177 82.4471 77.2437 82.3981C77.1697 82.3494 77.097 82.2985 77.0254 82.2458C76.9538 82.1931 76.8837 82.1384 76.8146 82.0818C76.7457 82.0251 76.6784 81.9668 76.6121 81.9067C76.5461 81.8465 76.4814 81.7847 76.418 81.721C76.3549 81.6574 76.2933 81.592 76.2333 81.525C76.1732 81.458 76.1147 81.3894 76.0578 81.3193C76.001 81.2492 75.9457 81.1775 75.8924 81.1044C75.8388 81.0313 75.7872 80.9566 75.7371 80.8808C75.6872 80.8047 75.639 80.7275 75.5927 80.6487C75.5464 80.5701 75.5018 80.4902 75.4593 80.4092C75.4166 80.3282 75.3761 80.2459 75.3373 80.1627C75.2984 80.0793 75.2618 79.9951 75.2269 79.9095C75.1921 79.8242 75.1592 79.738 75.1284 79.6506C75.0978 79.5634 75.069 79.4754 75.0423 79.3866C75.0155 79.2978 74.9909 79.2081 74.9682 79.1177C74.9457 79.0276 74.9253 78.9366 74.9069 78.8451C74.8887 78.7537 74.8725 78.6616 74.8583 78.569C74.8442 78.4767 74.8325 78.3837 74.8226 78.2905C74.8127 78.1972 74.805 78.1037 74.7997 78.0101C74.7942 77.9161 74.7908 77.8222 74.7898 77.7282C74.7885 77.6339 74.7896 77.5399 74.7928 77.4457C74.796 77.3516 74.8013 77.2573 74.8087 77.1632C74.8163 77.0693 74.826 76.9755 74.8378 76.8816C74.8495 76.7879 74.8635 76.6945 74.8796 76.6015C74.8956 76.5083 74.9139 76.4159 74.9342 76.3236L76.1758 70.6851C76.1961 70.5929 76.2184 70.501 76.243 70.4097C76.2675 70.3186 76.294 70.2279 76.3227 70.138C76.3513 70.0481 76.382 69.9588 76.4146 69.8702C76.4474 69.7817 76.4821 69.6941 76.5188 69.6072C76.5555 69.5203 76.594 69.4345 76.6347 69.3495C76.6751 69.2647 76.7177 69.1808 76.7621 69.0981C76.8063 69.0151 76.8525 68.9336 76.9007 68.853C76.9488 68.7726 76.9985 68.6933 77.05 68.6152C77.1018 68.5371 77.1552 68.4604 77.2101 68.3851C77.2653 68.3098 77.322 68.2358 77.3803 68.1635C77.4388 68.0909 77.4988 68.0202 77.5604 67.9506C77.622 67.8812 77.6849 67.8134 77.7495 67.7472C77.8141 67.681 77.8802 67.6164 77.9476 67.5536C78.0152 67.4906 78.0838 67.4295 78.1542 67.3701C78.2243 67.3109 78.2957 67.2533 78.3685 67.1977C78.441 67.142 78.5151 67.0882 78.5901 67.0364C78.6651 66.9845 78.7413 66.9345 78.8185 66.8867C78.8959 66.8386 78.9741 66.7927 79.0535 66.7487C79.1326 66.7048 79.2129 66.6629 79.2938 66.6232C79.3748 66.5835 79.4568 66.5457 79.5394 66.5101C79.6221 66.4746 79.7054 66.4411 79.7895 66.4099C79.8737 66.3789 79.9584 66.3498 80.0436 66.3229C80.129 66.2962 80.2146 66.2715 80.3009 66.2491C80.3874 66.2269 80.4739 66.2068 80.5611 66.1888C80.6482 66.171 80.7356 66.1553 80.8231 66.1422C80.9109 66.1288 80.9987 66.1178 81.0868 66.1093C81.1748 66.1005 81.263 66.094 81.3513 66.0901C81.4394 66.0859 81.5277 66.0842 81.6157 66.0848C81.704 66.0851 81.792 66.0881 81.8799 66.0932C81.9678 66.0985 82.0555 66.1059 82.1429 66.1156C82.2303 66.1253 82.3174 66.1375 82.4041 66.1518C82.4909 66.1661 82.5772 66.1829 82.6631 66.2018C82.7489 66.2207 82.8343 66.2418 82.9189 66.2652C83.0038 66.2886 83.0877 66.3141 83.1713 66.3421C83.2547 66.37 83.3374 66.4 83.4194 66.4322C83.5012 66.4645 83.5825 66.4987 83.6625 66.5354C83.7429 66.572 83.822 66.6105 83.9005 66.6514C83.9787 66.692 84.056 66.7349 84.1324 66.7799C84.2086 66.8246 84.2838 66.8715 84.3577 66.9205C84.4318 66.9692 84.5045 67.0202 84.576 67.0728C84.6475 67.1258 84.7178 67.1804 84.7867 67.2368C84.8556 67.2935 84.9232 67.3518 84.9892 67.4118C85.0554 67.4722 85.1201 67.5342 85.1833 67.5976C85.2464 67.6612 85.308 67.7266 85.3683 67.7936C85.4284 67.8606 85.4867 67.9292 85.5437 67.9994C85.6006 68.0694 85.6556 68.1411 85.7092 68.2142C85.7625 68.2875 85.8143 68.362 85.8642 68.4381C85.9142 68.5139 85.9623 68.5914 86.0086 68.6699C86.0552 68.7485 86.0995 68.8284 86.1422 68.9094C86.1847 68.9904 86.2255 69.0727 86.2642 69.1559C86.3029 69.2393 86.3398 69.3236 86.3745 69.4091C86.4095 69.4945 86.4421 69.5808 86.4729 69.668C86.5038 69.7552 86.5326 69.8432 86.5593 69.9321C86.586 70.0211 86.6105 70.1105 86.6331 70.2009C86.6556 70.291 86.676 70.382 86.6945 70.4735C86.7129 70.565 86.7291 70.657 86.7431 70.7495C86.7571 70.8421 86.7691 70.935 86.779 71.0281C86.7886 71.1214 86.7963 71.2149 86.8018 71.3088C86.8074 71.4025 86.8106 71.4964 86.8118 71.5905C86.8128 71.6847 86.812 71.7787 86.8088 71.873C86.8055 71.9673 86.8003 72.0614 86.7926 72.1554C86.7852 72.2495 86.7756 72.3434 86.7638 72.4371C86.7519 72.5307 86.7381 72.6241 86.7218 72.7171C86.7057 72.8103 86.6876 72.903 86.6673 72.9953L85.4258 78.6338Z" fill="#595959"/>
<path id="b4_2" d="M55.0527 54.2104C54.9668 54.1915 54.88 54.1769 54.7926 54.1672C54.7052 54.1575 54.6173 54.1522 54.5291 54.1516C54.4408 54.1513 54.3527 54.1553 54.2647 54.164C54.1765 54.1728 54.089 54.1859 54.0018 54.2039C53.9146 54.2216 53.8283 54.2441 53.743 54.2708C53.6575 54.2977 53.5735 54.329 53.4909 54.3646C53.4082 54.4001 53.3272 54.4398 53.2479 54.4837C53.1685 54.5278 53.0913 54.5756 53.0163 54.6277C52.9411 54.6795 52.8685 54.7351 52.7981 54.7945C52.728 54.854 52.6606 54.9168 52.596 54.983C52.5314 55.0492 52.4698 55.1185 52.4113 55.1911C52.353 55.2637 52.2978 55.339 52.2463 55.4171C52.1945 55.4952 52.1466 55.5756 52.1022 55.6585C52.0578 55.7412 52.0174 55.8261 51.9805 55.9129C51.9438 55.9999 51.9112 56.0884 51.8825 56.1784C51.8538 56.2685 51.8293 56.3596 51.8089 56.4519L46.8427 79.0057C46.8224 79.0979 46.8063 79.1912 46.7946 79.2848C46.7828 79.3787 46.7752 79.4725 46.772 79.5668C46.769 79.6612 46.7701 79.7551 46.7756 79.8491C46.7811 79.9428 46.7907 80.0361 46.8049 80.1287C46.819 80.221 46.8374 80.3125 46.8598 80.4029C46.8825 80.4933 46.9092 80.5821 46.94 80.6693C46.9709 80.7565 47.0056 80.8418 47.0443 80.9252C47.0832 81.0087 47.1257 81.0897 47.1722 81.1685C47.2185 81.2471 47.2684 81.3229 47.3219 81.3962C47.3755 81.4694 47.4323 81.5394 47.4924 81.6064C47.5524 81.6734 47.6156 81.7371 47.6818 81.7974C47.748 81.8575 47.8169 81.9141 47.8886 81.9668C47.9601 82.0198 48.034 82.0685 48.1104 82.1134C48.1866 82.1583 48.2648 82.1992 48.3451 82.2357C48.4254 82.2723 48.5074 82.3044 48.5908 82.3323C48.6742 82.3602 48.7591 82.3837 48.8449 82.4026C48.9308 82.4215 49.0176 82.4358 49.1051 82.4455C49.1925 82.4552 49.2804 82.4605 49.3686 82.4611C49.4569 82.4617 49.545 82.4575 49.633 82.4487C49.7212 82.44 49.8087 82.4268 49.8959 82.4088C49.983 82.3911 50.0693 82.3686 50.1547 82.3419C50.2401 82.315 50.3242 82.2837 50.4068 82.2482C50.4895 82.2126 50.5705 82.1729 50.6498 82.129C50.7292 82.0849 50.8063 82.0371 50.8813 81.9853C50.9566 81.9332 51.0292 81.8776 51.0996 81.8182C51.1697 81.7587 51.2371 81.6959 51.3017 81.6297C51.3663 81.5635 51.4278 81.4942 51.4864 81.4216C51.5447 81.349 51.5998 81.2737 51.6513 81.1958C51.7031 81.1178 51.7511 81.0371 51.7955 80.9544C51.8399 80.8715 51.8803 80.7866 51.9172 80.6998C51.9539 80.6129 51.9864 80.5245 52.0152 80.4344C52.0439 80.3444 52.0684 80.2531 52.0887 80.1608L57.0549 57.607C57.0753 57.5148 57.0913 57.4216 57.1031 57.3279C57.1148 57.2342 57.1224 57.1402 57.1254 57.0458C57.1287 56.9516 57.1276 56.8576 57.1221 56.7639C57.1166 56.67 57.1069 56.5769 57.0927 56.4843C57.0787 56.3917 57.0603 56.3002 57.0379 56.2098C57.0152 56.1194 56.9885 56.0306 56.9576 55.9434C56.9268 55.8562 56.8921 55.7709 56.8534 55.6875C56.8145 55.604 56.772 55.523 56.7255 55.4444C56.6792 55.3657 56.6293 55.2898 56.5758 55.2165C56.5222 55.1434 56.4654 55.0733 56.4053 55.0063C56.3452 54.9393 56.2821 54.8756 56.2159 54.8153C56.1496 54.7552 56.0807 54.6986 56.0091 54.6459C55.9375 54.5929 55.8636 54.5442 55.7875 54.4993C55.7111 54.4544 55.6328 54.4138 55.5525 54.3772C55.4722 54.3405 55.3902 54.3083 55.3068 54.2804C55.2234 54.2525 55.1385 54.2293 55.0527 54.2104Z" fill="#595959"/>
<g id="b1_2">
<path id="Vector_6" d="M34.2092 61.4444C34.2499 61.2599 34.2863 61.0744 34.3186 60.8882C34.3507 60.7021 34.3785 60.5152 34.4022 60.3279C34.4257 60.1406 34.4451 59.9529 34.4601 59.7647C34.4751 59.5765 34.4857 59.3883 34.4921 59.2C34.4985 59.0114 34.5005 58.8232 34.4982 58.6349C34.4959 58.4467 34.4893 58.259 34.4783 58.0714C34.4674 57.8838 34.4521 57.6967 34.4326 57.5102C34.4131 57.3238 34.389 57.138 34.361 56.9529C34.3327 56.768 34.3003 56.584 34.2637 56.401C34.2271 56.218 34.1862 56.0361 34.1411 55.8556C34.096 55.675 34.0466 55.4958 33.9931 55.3181C33.9399 55.1406 33.8824 54.9643 33.8207 54.7899C33.7591 54.6155 33.6935 54.4427 33.6238 54.2721C33.5543 54.1012 33.4806 53.9327 33.403 53.7658C33.3256 53.5993 33.2442 53.4348 33.159 53.2728C33.0739 53.1106 32.9849 52.951 32.8923 52.7937C32.7995 52.6366 32.7033 52.4819 32.6033 52.33C32.5035 52.1781 32.4 52.0289 32.2929 51.8824C32.186 51.7363 32.0757 51.5928 31.962 51.4527C31.8482 51.3123 31.7313 51.1753 31.6112 51.0413C31.4911 50.9072 31.3677 50.7765 31.2414 50.6492C31.1149 50.5218 30.9857 50.3982 30.8532 50.2778C30.721 50.1574 30.5861 50.0408 30.4482 49.9277C30.3104 49.8147 30.1699 49.7054 30.0267 49.5997C29.8837 49.4941 29.7382 49.3924 29.5902 49.2948C29.4423 49.1968 29.292 49.1032 29.1395 49.0133C28.9869 48.9237 28.8323 48.8381 28.6756 48.7566C28.5191 48.6749 28.3603 48.5977 28.1999 48.5247C28.0395 48.4515 27.8774 48.3828 27.7134 48.3183C27.5495 48.2538 27.3841 48.1938 27.2173 48.138C27.0504 48.0824 26.8822 48.031 26.7127 47.9842C26.5432 47.9373 26.3725 47.8952 26.2008 47.8574C26.0291 47.8195 25.8567 47.7861 25.6832 47.7575C25.5097 47.7288 25.3354 47.7048 25.1607 47.6851C24.9856 47.6657 24.8103 47.6507 24.6346 47.6404C24.4588 47.6301 24.2826 47.6242 24.1063 47.6233C23.93 47.6222 23.7537 47.6256 23.5772 47.634C23.4007 47.6421 23.2245 47.6548 23.0483 47.6721C22.8722 47.6896 22.6965 47.7115 22.5213 47.7382C22.346 47.7647 22.171 47.7958 21.9969 47.8316C21.8228 47.8674 21.6493 47.9076 21.4768 47.9523C21.3042 47.997 21.1325 48.0461 20.962 48.0998C20.7914 48.1534 20.622 48.2114 20.4539 48.2739C20.2856 48.3363 20.119 48.4032 19.9537 48.4743C19.7881 48.5454 19.6245 48.6207 19.4622 48.7004C19.3003 48.7798 19.1399 48.8636 18.9815 48.9513C18.823 49.0393 18.6664 49.1313 18.5118 49.2271C18.3574 49.3231 18.205 49.4229 18.055 49.5266C17.9047 49.6305 17.7569 49.7379 17.6115 49.8494C17.4661 49.9606 17.3232 50.0756 17.1829 50.1943C17.0427 50.3132 16.905 50.4351 16.77 50.561C16.6352 50.6866 16.503 50.8158 16.3738 50.9482C16.2448 51.0806 16.1185 51.2164 15.9954 51.3551C15.8723 51.4939 15.7524 51.6359 15.6356 51.7808C15.5188 51.9257 15.4054 52.0736 15.2951 52.2242C15.185 52.3749 15.0782 52.5283 14.9751 52.6843C14.8718 52.8404 14.7721 52.9989 14.6759 53.1599C14.5799 53.321 14.4876 53.4844 14.3987 53.65C14.3101 53.8157 14.225 53.9832 14.1439 54.153C14.0628 54.3229 13.9855 54.4946 13.9121 54.6684C13.8388 54.842 13.7694 55.0172 13.704 55.1943C13.6386 55.3714 13.5773 55.5499 13.5201 55.7298C13.4628 55.9097 13.4098 56.091 13.3607 56.2734C13.3116 56.4559 13.2668 56.6395 13.2261 56.8241L11.9846 62.4625C11.9439 62.647 11.9076 62.8323 11.8755 63.0185C11.8434 63.2046 11.8153 63.3915 11.7918 63.5788C11.7681 63.7663 11.7487 63.954 11.7338 64.142C11.7188 64.3302 11.7082 64.5183 11.7017 64.7069C11.6953 64.8952 11.6934 65.0835 11.6957 65.2717C11.6979 65.4599 11.7047 65.6479 11.7155 65.8355C11.7266 66.0229 11.7418 66.2099 11.7613 66.3964C11.781 66.583 11.8048 66.7689 11.8331 66.9538C11.8611 67.1386 11.8935 67.3227 11.9302 67.5056C11.967 67.6887 12.0079 67.8706 12.053 68.0511C12.0981 68.2317 12.1472 68.4109 12.2007 68.5885C12.2541 68.7664 12.3117 68.9424 12.3731 69.1168C12.4348 69.2912 12.5006 69.464 12.5701 69.6346C12.6398 69.8055 12.7134 69.9742 12.7908 70.1408C12.8682 70.3074 12.9496 70.4718 13.0348 70.634C13.12 70.796 13.209 70.9559 13.3018 71.113C13.3943 71.2703 13.4908 71.4248 13.5906 71.5767C13.6906 71.7289 13.7941 71.8778 13.901 72.0242C14.0079 72.1704 14.1182 72.3138 14.2318 72.4542C14.3457 72.5943 14.4625 72.7316 14.5829 72.8654C14.703 72.9995 14.8262 73.1301 14.9527 73.2575C15.079 73.3848 15.2084 73.5085 15.3406 73.6289C15.4729 73.7492 15.608 73.8659 15.7459 73.979C15.8836 74.0922 16.0242 74.2016 16.1672 74.307C16.3102 74.4126 16.4559 74.5143 16.6039 74.6119C16.7518 74.7099 16.9019 74.8035 17.0544 74.8933C17.207 74.983 17.3616 75.0688 17.5183 75.1503C17.675 75.2318 17.8336 75.3089 17.9939 75.3822C18.1544 75.4552 18.3167 75.5241 18.4807 75.5884C18.6444 75.6528 18.8097 75.7131 18.9768 75.7687C19.1436 75.8246 19.3119 75.8757 19.4814 75.9226C19.6509 75.9694 19.8213 76.0117 19.993 76.0495C20.1647 76.0873 20.3374 76.1206 20.5109 76.1492C20.6844 76.1779 20.8586 76.2022 21.0334 76.2216C21.2082 76.2412 21.3836 76.256 21.5595 76.2663C21.7353 76.2769 21.9113 76.2824 22.0875 76.2836C22.2639 76.2844 22.4404 76.2811 22.6166 76.2729C22.7931 76.2648 22.9694 76.2518 23.1455 76.2346C23.3217 76.2171 23.4974 76.1952 23.6728 76.1685C23.8481 76.142 24.0228 76.1109 24.197 76.0751C24.3712 76.0396 24.5447 75.9993 24.7173 75.9544C24.8899 75.9097 25.0613 75.8605 25.2319 75.8069C25.4027 75.7533 25.5719 75.6953 25.7402 75.6328C25.9082 75.5703 26.0751 75.5035 26.2404 75.4324C26.4057 75.3615 26.5694 75.2859 26.7316 75.2065C26.8936 75.1269 27.054 75.0431 27.2124 74.9553C27.3711 74.8674 27.5276 74.7757 27.682 74.6795C27.8367 74.5836 27.9888 74.484 28.1391 74.3801C28.2891 74.2764 28.437 74.1688 28.5824 74.0575C28.7278 73.9461 28.8707 73.831 29.0109 73.7124C29.1514 73.5938 29.2891 73.4716 29.4239 73.3457C29.5589 73.2201 29.6909 73.0909 29.8201 72.9585C29.9493 72.8261 30.0755 72.6905 30.1985 72.5515C30.3216 72.4128 30.4417 72.2708 30.5585 72.1259C30.6753 71.981 30.7887 71.8331 30.8988 71.6824C31.0089 71.5318 31.1156 71.3783 31.2189 71.2224C31.322 71.0664 31.422 70.9078 31.518 70.7467C31.614 70.5857 31.7065 70.4223 31.7951 70.2569C31.8839 70.0912 31.9688 69.9235 32.0499 69.7536C32.1311 69.5838 32.2084 69.4121 32.2817 69.2385C32.355 69.0646 32.4245 68.8894 32.4899 68.7123C32.5552 68.5355 32.6165 68.357 32.6739 68.1769C32.7311 67.997 32.7843 67.8157 32.8334 67.6333C32.8822 67.4508 32.927 67.2674 32.9677 67.0828L34.2092 61.4444ZM27.7219 65.9278C27.7016 66.02 27.6793 66.1116 27.6548 66.203C27.6303 66.2941 27.6037 66.3847 27.5751 66.4747C27.5463 66.5648 27.5157 66.6541 27.4831 66.7424C27.4503 66.8309 27.4155 66.9188 27.3789 67.0054C27.3423 67.0924 27.3037 67.1781 27.263 67.2631C27.2226 67.348 27.1801 67.4318 27.1356 67.5148C27.0914 67.5975 27.0452 67.6791 26.9971 67.7597C26.949 67.8401 26.8992 67.9196 26.8477 67.9974C26.7959 68.0755 26.7425 68.1522 26.6876 68.2276C26.6324 68.3029 26.5757 68.3768 26.5172 68.4491C26.4589 68.5217 26.3989 68.5927 26.3373 68.6621C26.2757 68.7315 26.2126 68.7992 26.1483 68.8655C26.0836 68.9319 26.0175 68.9963 25.9502 69.0591C25.8825 69.1221 25.8139 69.1831 25.7435 69.2425C25.6734 69.3017 25.6021 69.3594 25.5293 69.415C25.4567 69.4706 25.3827 69.5244 25.3077 69.5763C25.2326 69.6283 25.1564 69.6782 25.0792 69.7262C25.0018 69.774 24.9236 69.8201 24.8443 69.864C24.7652 69.9079 24.6849 69.9498 24.6039 69.9895C24.5229 70.0292 24.4409 70.0669 24.3583 70.1025C24.2756 70.1381 24.1923 70.1715 24.1083 70.2028C24.024 70.234 23.9393 70.2628 23.8541 70.2898C23.7688 70.3165 23.6831 70.3411 23.5966 70.3635C23.5103 70.386 23.4238 70.4061 23.3367 70.4239C23.2495 70.4416 23.1621 70.4573 23.0746 70.4705C22.9868 70.4838 22.899 70.4949 22.8108 70.5036C22.7229 70.5121 22.6347 70.5186 22.5464 70.5228C22.4583 70.5268 22.37 70.5287 22.2819 70.5281C22.1937 70.5276 22.1057 70.5248 22.0178 70.5195C21.9298 70.5144 21.8422 70.5069 21.7548 70.497C21.6674 70.4873 21.5803 70.4752 21.4937 70.4609C21.4068 70.4465 21.3204 70.43 21.2346 70.4111C21.1487 70.3922 21.0634 70.3709 20.9788 70.3475C20.8939 70.324 20.81 70.2985 20.7264 70.2706C20.6429 70.2429 20.5602 70.2129 20.4783 70.1805C20.3965 70.1484 20.3153 70.1139 20.2351 70.0774C20.1548 70.0409 20.0757 70.0021 19.9972 69.9615C19.919 69.9206 19.8417 69.8777 19.7653 69.833C19.6891 69.7881 19.6139 69.7411 19.54 69.6922C19.4659 69.6434 19.3932 69.5925 19.3218 69.5398C19.2501 69.4871 19.1799 69.4324 19.111 69.3758C19.0421 69.3192 18.9745 69.2608 18.9085 69.2008C18.8423 69.1405 18.7775 69.0787 18.7144 69.0151C18.6513 68.9514 18.5897 68.8861 18.5294 68.819C18.4693 68.752 18.411 68.6834 18.354 68.6133C18.2972 68.5432 18.2421 68.4716 18.1885 68.3984C18.135 68.3253 18.0834 68.2506 18.0334 68.1748C17.9833 68.0987 17.9353 68.0215 17.8889 67.9427C17.8426 67.8641 17.7982 67.7843 17.7555 67.7032C17.713 67.6223 17.6722 67.5399 17.6335 67.4567C17.5948 67.3733 17.5579 67.2891 17.5232 67.2035C17.4883 67.1182 17.4556 67.0321 17.4248 66.9446C17.3939 66.8574 17.3652 66.7694 17.3384 66.6806C17.3117 66.5918 17.287 66.5021 17.2646 66.4118C17.2419 66.3216 17.2215 66.2306 17.2033 66.1392C17.1848 66.0477 17.1686 65.9556 17.1546 65.8631C17.1406 65.7708 17.1286 65.6777 17.1187 65.5845C17.1091 65.4912 17.1014 65.3978 17.0958 65.3041C17.0903 65.2101 17.0872 65.1162 17.0859 65.0222C17.0849 64.928 17.0857 64.8339 17.089 64.7397C17.0921 64.6456 17.0975 64.5513 17.1051 64.4572C17.1124 64.3634 17.1221 64.2695 17.1339 64.1756C17.1459 64.082 17.1597 63.9885 17.1759 63.8956C17.192 63.8024 17.21 63.7099 17.2304 63.6176L18.4719 57.9791C18.4922 57.8869 18.5148 57.7951 18.5393 57.7037C18.5636 57.6126 18.5903 57.522 18.6188 57.432C18.6475 57.3421 18.6781 57.2528 18.7109 57.1643C18.7435 57.0757 18.7783 56.9881 18.8149 56.9012C18.8516 56.8143 18.8904 56.7286 18.9308 56.6435C18.9715 56.5587 19.0138 56.4748 19.0582 56.3921C19.1026 56.3092 19.1489 56.2276 19.1968 56.147C19.2449 56.0666 19.2948 55.9874 19.3464 55.9093C19.398 55.8311 19.4513 55.7544 19.5065 55.6791C19.5614 55.6038 19.6182 55.5298 19.6766 55.4575C19.735 55.3849 19.7949 55.3142 19.8566 55.2446C19.9181 55.1752 19.9812 55.1074 20.0458 55.0412C20.1104 54.975 20.1763 54.9104 20.2439 54.8476C20.3114 54.7846 20.3802 54.7236 20.4503 54.6641C20.5204 54.6049 20.592 54.5473 20.6646 54.4917C20.7374 54.4361 20.8112 54.3822 20.8862 54.3304C20.9614 54.2786 21.0375 54.2285 21.1149 54.1807C21.1921 54.1326 21.2702 54.0867 21.3496 54.0427C21.4289 53.9988 21.509 53.9569 21.59 53.9172C21.6712 53.8775 21.7529 53.8397 21.8356 53.8041C21.9185 53.7686 22.0018 53.7352 22.0858 53.7039C22.1698 53.6729 22.2545 53.6438 22.34 53.6169C22.4251 53.5902 22.5109 53.5656 22.5973 53.5431C22.6835 53.5209 22.7702 53.5008 22.8574 53.4828C22.9443 53.465 23.0317 53.4493 23.1195 53.4362C23.2071 53.4228 23.2951 53.4118 23.383 53.4033C23.4712 53.3946 23.5593 53.3881 23.6474 53.3841C23.7358 53.3799 23.8238 53.3782 23.9121 53.3788C24.0002 53.3791 24.0883 53.3822 24.1761 53.3872C24.264 53.3925 24.3516 53.4 24.4391 53.4097C24.5267 53.4194 24.6136 53.4315 24.7004 53.4458C24.7871 53.4601 24.8734 53.4769 24.9592 53.4958C25.0451 53.5147 25.1305 53.5358 25.2153 53.5592C25.2999 53.5826 25.3841 53.6082 25.4675 53.6361C25.5509 53.664 25.6336 53.694 25.7156 53.7262C25.7975 53.7585 25.8786 53.7927 25.9589 53.8295C26.039 53.866 26.1184 53.9046 26.1966 53.9454C26.2751 53.9861 26.3524 54.029 26.4285 54.0739C26.505 54.1186 26.58 54.1655 26.6541 54.2145C26.728 54.2632 26.8007 54.3142 26.8723 54.3669C26.9439 54.4198 27.0139 54.4744 27.0829 54.5308C27.152 54.5875 27.2193 54.6458 27.2856 54.7059C27.3516 54.7662 27.4163 54.8282 27.4797 54.8916C27.5428 54.9553 27.6044 55.0206 27.6645 55.0876C27.7245 55.1546 27.7831 55.2233 27.8399 55.2934C27.8967 55.3634 27.952 55.4351 28.0053 55.5082C28.0588 55.5816 28.1105 55.656 28.1606 55.7321C28.2105 55.808 28.2587 55.8854 28.305 55.964C28.3513 56.0425 28.3959 56.1224 28.4384 56.2034C28.4811 56.2844 28.5216 56.3668 28.5604 56.4499C28.5993 56.5334 28.6359 56.6176 28.6708 56.7032C28.7056 56.7885 28.7385 56.8749 28.7693 56.9621C28.7999 57.0492 28.8287 57.1373 28.8554 57.2261C28.8821 57.3151 28.9069 57.4045 28.9293 57.4949C28.952 57.5851 28.9724 57.676 28.9908 57.7675C29.009 57.859 29.0252 57.951 29.0394 58.0436C29.0534 58.1361 29.0653 58.229 29.0751 58.3221C29.085 58.4155 29.0927 58.5089 29.098 58.6028C29.1035 58.6965 29.1069 58.7905 29.108 58.8845C29.1092 58.9787 29.1081 59.0727 29.1049 59.167C29.1017 59.2613 29.0964 59.3554 29.089 59.4495C29.0814 59.5435 29.0717 59.6374 29.06 59.7311C29.0482 59.8247 29.0342 59.9181 29.0182 60.0111C29.0021 60.1043 28.9838 60.197 28.9635 60.2893L27.7219 65.9278Z" fill="#595959"/>
</g>
</g>
<defs>
<clipPath id="clip0_28_44">
<rect width="119.353" height="82.5373" fill="white" transform="translate(17.749) rotate(12.418)"/>
</clipPath>
</defs>
</svg>
