<svg width="92" height="116" viewBox="0 0 92 116" fill="none" xmlns="http://www.w3.org/2000/svg">
<g id="bling">
<g id="bling3">
<path id="Vector" d="M29.9475 106.309C30.9179 106.408 31.8345 105.831 32.2209 104.883L39.2091 87.691C41.7942 81.3474 46.5259 76.3514 52.5516 73.6385L58.67 70.8877C59.4173 70.5524 59.9378 69.8179 60.0243 68.9686C60.1109 68.119 59.7493 67.2946 59.0849 66.8155L53.658 62.8887C48.3032 59.0161 44.6653 53.1673 43.4138 46.4213L40.0353 28.1845C39.8481 27.1779 39.0666 26.4284 38.0962 26.3295C37.1257 26.2306 36.2092 26.8072 35.8228 27.7553L28.8357 44.936C26.2497 51.291 21.5079 56.2743 15.4813 58.9991L9.37365 61.7507C8.62634 62.086 8.10592 62.8205 8.01936 63.6701C7.93283 64.5194 8.29442 65.3438 8.95877 65.8229L14.3969 69.7511C19.7514 73.6234 23.3908 79.4606 24.631 86.2057L28.0084 104.454C28.1968 105.449 28.9771 106.21 29.9475 106.309ZM53.2315 68.2765L50.8492 69.3504C43.7499 72.5418 38.1709 78.4156 35.1367 85.8887L30.9883 96.0934L28.9835 85.2618C27.5185 77.3302 23.228 70.4509 16.9291 65.8944L14.8122 64.3622L17.1822 63.2987C24.2818 60.1074 29.8618 54.2217 32.9072 46.7497L37.0542 36.5566L39.0616 47.3651C40.5364 55.3093 44.8159 62.1875 51.1258 66.7453L53.2315 68.2765Z" fill="#595959"/>
</g>
<g id="bling2">
<mask id="path-2-inside-1_40_164" fill="white">
<path d="M59.501 52.2336C60.4714 52.3324 61.3882 51.7557 61.7744 50.8075L65.268 42.2174C66.4427 39.3277 68.6017 37.0553 71.3461 35.8183L74.4059 34.4372C75.1532 34.102 75.6736 33.3674 75.7602 32.5179C75.8467 31.6686 75.4851 30.8442 74.8208 30.3649L72.1134 28.3962C69.6748 26.6314 68.0185 23.9703 67.4409 20.8903L65.7515 11.7719C65.5645 10.7653 64.7829 10.0155 63.8124 9.91665C62.8422 9.8178 61.9254 10.3945 61.5392 11.3427L58.0456 19.9331C56.8709 22.8228 54.7107 25.1068 51.9663 26.3435L48.9066 27.7246C48.1592 28.0601 47.6388 28.7946 47.5523 29.6439C47.4657 30.4935 47.8273 31.3179 48.4916 31.797L51.21 33.7668C53.6486 35.5318 55.3049 38.1929 55.8727 41.2602L57.5621 50.3784C57.7491 51.3849 58.5308 52.1347 59.501 52.2336ZM69.0004 31.8292C65.4887 33.5993 62.7405 36.6226 61.1953 40.4153L60.5418 42.0179L60.2249 40.3164C59.4764 36.2901 57.3946 32.7746 54.3121 30.3327C57.8237 28.5628 60.5729 25.5276 62.1169 21.7468L62.7704 20.144L63.0885 21.834C63.837 25.8601 65.919 29.3756 69.0004 31.8292Z"/>
</mask>
<path d="M59.501 52.2336C60.4714 52.3324 61.3882 51.7557 61.7744 50.8075L65.268 42.2174C66.4427 39.3277 68.6017 37.0553 71.3461 35.8183L74.4059 34.4372C75.1532 34.102 75.6736 33.3674 75.7602 32.5179C75.8467 31.6686 75.4851 30.8442 74.8208 30.3649L72.1134 28.3962C69.6748 26.6314 68.0185 23.9703 67.4409 20.8903L65.7515 11.7719C65.5645 10.7653 64.7829 10.0155 63.8124 9.91665C62.8422 9.8178 61.9254 10.3945 61.5392 11.3427L58.0456 19.9331C56.8709 22.8228 54.7107 25.1068 51.9663 26.3435L48.9066 27.7246C48.1592 28.0601 47.6388 28.7946 47.5523 29.6439C47.4657 30.4935 47.8273 31.3179 48.4916 31.797L51.21 33.7668C53.6486 35.5318 55.3049 38.1929 55.8727 41.2602L57.5621 50.3784C57.7491 51.3849 58.5308 52.1347 59.501 52.2336ZM69.0004 31.8292C65.4887 33.5993 62.7405 36.6226 61.1953 40.4153L60.5418 42.0179L60.2249 40.3164C59.4764 36.2901 57.3946 32.7746 54.3121 30.3327C57.8237 28.5628 60.5729 25.5276 62.1169 21.7468L62.7704 20.144L63.0885 21.834C63.837 25.8601 65.919 29.3756 69.0004 31.8292Z" fill="#595959" stroke="black" stroke-width="2" mask="url(#path-2-inside-1_40_164)"/>
</g>
<g id="bling1">
<g id="Vector_2">
<mask id="path-3-inside-2_40_164" fill="white">
<path d="M65.6776 109.608C66.648 109.707 67.5646 109.131 67.951 108.183L70.5845 101.691C71.4165 99.6482 72.9397 98.04 74.8891 97.1688L77.2006 96.1346C77.9503 95.7762 78.4707 95.0414 78.5572 94.1921C78.6438 93.3427 78.2822 92.5183 77.6179 92.039L75.5624 90.5601C73.8288 89.3137 72.6623 87.4198 72.2595 85.2508L70.9893 78.3618C70.802 77.3552 70.0206 76.6055 69.0501 76.5066C68.0797 76.4077 67.1631 76.9845 66.7767 77.9326L64.1432 84.4239C63.3112 86.467 61.7868 88.0868 59.8375 88.958L57.526 89.992C56.7786 90.3275 56.2582 91.062 56.1717 91.9113C56.0851 92.7606 56.4467 93.5853 57.1111 94.0643L59.1665 95.5433C60.8891 96.7886 62.0677 98.672 62.4706 100.841L63.7408 107.73C63.9269 108.748 64.7071 109.51 65.6776 109.608ZM71.9298 93.5168C69.6647 94.8614 67.8516 96.9103 66.727 99.4172C66.1313 96.735 64.7673 94.3742 62.8101 92.5877C65.0764 91.2315 66.8883 89.1942 68.0239 86.6884C68.6088 89.3695 69.9726 91.7303 71.9298 93.5168Z"/>
</mask>
<path d="M65.6776 109.608C66.648 109.707 67.5646 109.131 67.951 108.183L70.5845 101.691C71.4165 99.6482 72.9397 98.04 74.8891 97.1688L77.2006 96.1346C77.9503 95.7762 78.4707 95.0414 78.5572 94.1921C78.6438 93.3427 78.2822 92.5183 77.6179 92.039L75.5624 90.5601C73.8288 89.3137 72.6623 87.4198 72.2595 85.2508L70.9893 78.3618C70.802 77.3552 70.0206 76.6055 69.0501 76.5066C68.0797 76.4077 67.1631 76.9845 66.7767 77.9326L64.1432 84.4239C63.3112 86.467 61.7868 88.0868 59.8375 88.958L57.526 89.992C56.7786 90.3275 56.2582 91.062 56.1717 91.9113C56.0851 92.7606 56.4467 93.5853 57.1111 94.0643L59.1665 95.5433C60.8891 96.7886 62.0677 98.672 62.4706 100.841L63.7408 107.73C63.9269 108.748 64.7071 109.51 65.6776 109.608ZM71.9298 93.5168C69.6647 94.8614 67.8516 96.9103 66.727 99.4172C66.1313 96.735 64.7673 94.3742 62.8101 92.5877C65.0764 91.2315 66.8883 89.1942 68.0239 86.6884C68.6088 89.3695 69.9726 91.7303 71.9298 93.5168Z" fill="#595959" stroke="black" stroke-width="2" mask="url(#path-3-inside-2_40_164)"/>
</g>
</g>
</g>
</svg>
