<svg width="419" height="145" viewBox="0 0 419 145" fill="none" xmlns="http://www.w3.org/2000/svg">
<g id="keeb1">
<g id="keeb11">
<path fill-rule="evenodd" clip-rule="evenodd" d="M28.5304 122.576L3.50061 117.836C1.87599 117.528 0.805837 115.959 1.11347 114.334L3.50707 101.695C3.81471 100.071 5.38471 99.0009 7.00933 99.3085L32.0391 104.049C33.6637 104.356 34.7339 105.926 34.4262 107.55L32.0326 120.19C31.725 121.814 30.155 122.884 28.5304 122.576ZM96.354 110.181L83.6106 107.768C81.986 107.46 80.9158 105.891 81.2234 104.266L83.6171 91.6267C83.9247 90.0026 85.4947 88.9325 87.1194 89.2402L99.8627 91.6535C101.487 91.9612 102.557 93.5313 102.25 95.1553L99.8562 107.795C99.5486 109.419 97.9786 110.489 96.354 110.181ZM143.977 119.2L131.233 116.787C129.608 116.479 128.539 114.909 128.846 113.285L131.24 100.645C131.547 99.0214 133.117 97.9512 134.742 98.259L147.485 100.672C149.11 100.98 150.18 102.55 149.872 104.174L147.479 116.814C147.171 118.438 145.601 119.508 143.977 119.2ZM120.124 114.631L107.381 112.217C105.756 111.91 104.686 110.34 104.994 108.715L107.387 96.0759C107.695 94.4515 109.265 93.3817 110.89 93.6894L123.633 96.1027C125.258 96.4104 126.328 97.9801 126.02 99.6046L123.626 112.244C123.319 113.868 121.749 114.938 120.124 114.631ZM72.4601 105.551L59.7167 103.138C58.0921 102.83 57.0219 101.261 57.3296 99.6362L59.7232 86.9966C60.0309 85.3721 61.6009 84.3024 63.2255 84.6101L75.9689 87.0234C77.5935 87.3311 78.6637 88.9008 78.356 90.5252L75.9623 103.165C75.6547 104.789 74.0847 105.859 72.4601 105.551ZM137.821 93.1109L125.077 90.6975C123.453 90.3899 122.382 88.8198 122.69 87.1957L125.084 74.5562C125.391 72.9317 126.961 71.862 128.586 72.1697L141.329 74.583C142.954 74.8907 144.024 76.4604 143.717 78.0848L141.323 90.7244C141.015 92.3485 139.445 93.4185 137.821 93.1109ZM113.968 88.541L101.225 86.1276C99.6001 85.82 98.5299 84.2503 98.8376 82.6258L101.231 69.9863C101.539 68.3618 103.109 67.2921 104.733 67.5998L117.477 70.0131C119.101 70.3208 120.172 71.8905 119.864 73.5149L117.47 86.1545C117.163 87.7789 115.593 88.8486 113.968 88.541ZM90.1156 83.9711L77.3722 81.5577C75.7476 81.2501 74.6774 79.6804 74.9851 78.0559L77.3787 65.4167C77.6863 63.7923 79.2563 62.7226 80.8809 63.0302L93.6243 65.4436C95.2489 65.7512 96.3191 67.3209 96.0114 68.9454L93.6178 81.5846C93.3102 83.209 91.7402 84.2787 90.1156 83.9711ZM66.263 79.4015L53.5196 76.9882C51.895 76.6805 50.8249 75.1108 51.1325 73.4864L53.5262 60.8468C53.8338 59.2224 55.4038 58.1527 57.0284 58.4603L69.7718 60.8737C71.3964 61.1813 72.4666 62.751 72.159 64.3755L69.7653 77.015C69.4576 78.6395 67.8876 79.7092 66.263 79.4015ZM125.004 65.8122L112.261 63.3989C110.636 63.0912 109.566 61.5215 109.873 59.8974L112.267 47.2579C112.575 45.6334 114.145 44.5637 115.769 44.8714L128.513 47.2847C130.137 47.5924 131.207 49.1621 130.9 50.7865L128.506 63.4261C128.199 65.0502 126.629 66.1199 125.004 65.8122ZM101.151 61.2427L88.408 58.8294C86.7834 58.5217 85.7133 56.952 86.0209 55.3275L88.4146 42.688C88.7222 41.0635 90.2922 39.9938 91.9168 40.3015L104.66 42.7148C106.285 43.0226 107.355 44.5922 107.047 46.2166L104.654 58.8562C104.346 60.4806 102.776 61.5504 101.151 61.2427ZM77.2993 56.6729L64.5559 54.2595C62.9309 53.9518 61.8611 52.3822 62.1688 50.7577L64.5625 38.1181C64.87 36.4941 66.4396 35.4243 68.0646 35.732L80.808 38.1454C82.4326 38.453 83.5028 40.0227 83.1952 41.6468L80.8016 54.2864C80.4939 55.9108 78.9239 56.9805 77.2993 56.6729ZM53.4467 52.1033L40.7034 49.69C39.0787 49.3823 38.0086 47.8126 38.3162 46.1882L40.7099 33.5486C41.0175 31.9242 42.5875 30.8544 44.2121 31.1621L56.9555 33.5754C58.5802 33.8831 59.6503 35.4528 59.3427 37.0773L56.949 49.7168C56.6414 51.3413 55.0714 52.411 53.4467 52.1033ZM29.5942 47.5334L16.8509 45.1201C15.2262 44.8124 14.1561 43.2427 14.4637 41.6183L16.8574 28.9787C17.165 27.3546 18.735 26.2845 20.3597 26.5922L33.103 29.0055C34.7277 29.3132 35.7977 30.8833 35.4902 32.5074L33.0965 45.1469C32.7889 46.7714 31.2189 47.8411 29.5942 47.5334ZM42.2267 74.6917L12.2721 69.019C10.6475 68.7113 9.57737 67.1416 9.88501 65.5171L12.2787 52.8776C12.5863 51.2531 14.1563 50.1834 15.7809 50.4911L45.7355 56.1638C47.3601 56.4715 48.4303 58.0412 48.1226 59.6657L45.729 72.3052C45.4213 73.9297 43.8513 74.9994 42.2267 74.6917ZM48.3101 100.61L7.79532 92.9371C6.1707 92.6294 5.10054 91.0597 5.40818 89.4353L7.80185 76.7957C8.10949 75.1713 9.67949 74.1016 11.3041 74.4092L51.8189 82.0819C53.4435 82.3896 54.5137 83.9593 54.206 85.5837L51.8124 98.2233C51.5047 99.8477 49.9347 100.917 48.3101 100.61ZM134.983 142.316L68.1069 129.651C66.4819 129.343 65.4122 127.773 65.7197 126.149L68.1134 113.509C68.421 111.885 69.9907 110.815 71.6157 111.123L138.492 123.788C140.116 124.095 140.859 125.162 141.1 127.331L138.706 139.971C138.399 141.595 136.608 142.623 134.983 142.316ZM57.0387 127.555L39.3705 124.209C37.7459 123.901 36.6758 122.331 36.9833 120.707L39.377 108.067C39.6847 106.443 41.2547 105.373 42.8793 105.681L60.5475 109.027C62.1721 109.334 63.2422 110.904 62.9346 112.529L60.5409 125.168C60.2334 126.792 58.6633 127.862 57.0387 127.555Z" fill="#595959"/>
<path d="M135.108 67.726L147.851 70.1393C149.476 70.447 151.046 69.3769 151.353 67.7528L153.747 55.1133C154.054 53.4888 152.984 51.9191 151.36 51.6115L138.616 49.1981C136.992 48.8905 135.422 49.9602 135.114 51.5846L132.72 64.2242C132.413 65.8483 133.483 67.4183 135.108 67.726Z" fill="#595959"/>
</g>
<path id="keeb12" d="M106 33.1236C117.79 -7.91485 175.5 -0.500038 197.5 27.9999C219.5 56.4998 249 61 271 56.4998" stroke="#595959" stroke-width="7" stroke-linecap="round"/>
<path id="keeb13" d="M293 48.453C367.5 -8 359.308 44.5117 414.574 22.4507" stroke="#595959" stroke-width="7" stroke-linecap="round" stroke-dasharray="18 18"/>
</g>
</svg>
