<svg width="265" height="154" viewBox="0 0 265 154" fill="none" xmlns="http://www.w3.org/2000/svg">
<g id="keeb2">
<path id="keeb21" fill-rule="evenodd" clip-rule="evenodd" d="M194.174 117.86L182.429 115.371C180.931 115.054 179.992 113.488 180.333 111.877L182.989 99.3421C183.331 97.7311 184.825 96.6802 186.322 96.9975L198.067 99.4862C199.564 99.8034 200.504 101.37 200.162 102.981L197.506 115.515C197.165 117.126 195.671 118.177 194.174 117.86ZM172.192 113.149L160.447 110.661C158.949 110.344 158.01 108.777 158.351 107.166L161.007 94.6319C161.348 93.0209 162.842 91.97 164.34 92.2873L176.085 94.776C177.582 95.0932 178.522 96.6598 178.18 98.2707L175.524 110.805C175.183 112.416 173.689 113.467 172.192 113.149ZM150.21 108.439L138.465 105.951C136.967 105.633 136.028 104.067 136.369 102.456L139.025 89.9213C139.366 88.3104 140.86 87.2594 142.358 87.5767L154.103 90.0654C155.6 90.3827 156.54 91.9492 156.198 93.5601L153.542 106.095C153.201 107.706 151.707 108.757 150.21 108.439ZM211.338 96.6176L199.593 94.1289C198.096 93.8116 197.157 92.2452 197.498 90.6342L200.154 78.0997C200.495 76.4888 201.989 75.4378 203.486 75.7551L215.232 78.2437C216.729 78.5611 217.668 80.1275 217.327 81.7385L214.671 94.273C214.33 95.8839 212.836 96.9349 211.338 96.6176ZM189.357 91.9071L177.611 89.4184C176.114 89.1011 175.175 87.5346 175.516 85.9237L178.172 73.3892C178.513 71.7786 180.007 70.7276 181.505 71.0449L193.25 73.5336C194.747 73.8509 195.686 75.4174 195.345 77.028L192.689 89.5625C192.348 91.1734 190.854 92.2244 189.357 91.9071ZM167.374 87.1969L155.629 84.7082C154.132 84.391 153.193 82.8241 153.534 81.2135L156.19 68.679C156.531 67.068 158.025 66.0171 159.523 66.3344L171.268 68.823C172.765 69.1403 173.704 70.7069 173.363 72.3178L170.707 84.8523C170.366 86.4629 168.872 87.5142 167.374 87.1969ZM145.392 82.4863L133.647 79.9977C132.15 79.6804 131.211 78.1139 131.552 76.5029L134.208 63.9684C134.549 62.3578 136.043 61.3065 137.541 61.6238L149.286 64.1125C150.783 64.4298 151.722 65.9967 151.381 67.6072L148.725 80.1417C148.384 81.7527 146.89 82.8036 145.392 82.4863ZM200.38 69.4163L188.635 66.9276C187.138 66.6103 186.199 65.0438 186.54 63.4329L189.196 50.8984C189.537 49.2874 191.031 48.2365 192.529 48.5538L204.274 51.0424C205.771 51.3597 206.71 52.9262 206.369 54.5372L203.713 67.0717C203.372 68.6826 201.878 69.7336 200.38 69.4163ZM178.398 64.7057L166.653 62.2171C165.156 61.8998 164.217 60.3332 164.558 58.7223L167.214 46.1878C167.555 44.5772 169.049 43.5259 170.547 43.8432L182.292 46.3319C183.789 46.6491 184.728 48.216 184.387 49.8266L181.731 62.3611C181.39 63.9721 179.896 65.023 178.398 64.7057ZM156.416 59.9955L144.671 57.5069C143.174 57.1896 142.235 55.6227 142.576 54.0121L145.232 41.4776C145.573 39.8667 147.067 38.8157 148.564 39.133L160.31 41.6217C161.807 41.9389 162.746 43.5055 162.405 45.1164L159.749 57.6509C159.408 59.2615 157.914 60.3128 156.416 59.9955ZM256.594 81.4853L210.924 71.8082C209.426 71.4909 208.487 69.9241 208.828 68.3135L211.484 55.779C211.826 54.168 213.319 53.117 214.817 53.4344L260.487 63.1114C261.984 63.4287 262.923 64.9952 262.582 66.6061L259.926 79.1406C259.585 80.7512 258.091 81.8026 256.594 81.4853ZM246.546 128.905L204.432 119.981C202.935 119.664 201.995 118.097 202.337 116.486L204.993 103.952C205.334 102.341 206.828 101.29 208.325 101.607L250.439 110.531C251.937 110.848 252.876 112.415 252.534 114.026L249.878 126.56C249.537 128.171 248.043 129.222 246.546 128.905ZM251.687 104.641L221.927 98.3352C220.429 98.0179 219.49 96.4513 219.831 94.8404L222.487 82.3059C222.829 80.6949 224.323 79.644 225.82 79.9613L255.58 86.2673C257.078 86.5846 258.017 88.151 257.676 89.762L255.02 102.296C254.678 103.907 253.185 104.958 251.687 104.641ZM195.591 123.631L211.875 127.081C213.373 127.398 214.312 128.965 213.971 130.576L211.315 143.11C210.973 144.721 209.479 145.772 207.982 145.455L191.698 142.005C190.201 141.687 189.261 140.12 189.603 138.51L192.259 125.975C192.6 124.364 194.094 123.313 195.591 123.631ZM222.17 129.262L245.239 134.151C246.736 134.468 247.675 136.034 247.334 137.645L244.678 150.18C244.337 151.79 242.843 152.842 241.345 152.524L218.276 147.636C216.779 147.319 215.84 145.752 216.181 144.142L218.837 131.607C219.178 129.996 220.672 128.945 222.17 129.262ZM181.497 139.843L129.557 128.837C128.059 128.52 127.12 126.953 127.462 125.343L130.117 112.808C130.459 111.197 131.952 110.146 133.45 110.464L185.391 121.469C186.888 121.787 187.827 123.353 187.486 124.964L184.83 137.499C184.489 139.109 182.995 140.16 181.497 139.843Z" fill="#595959"/>
<path id="keeb22" d="M103.277 17.7304C118.696 1.79083 170.569 -2.37695 166.404 35.6057" stroke="#595959" stroke-width="7" stroke-linecap="round"/>
<path id="keeb23" d="M91.5211 29.4011C79.0571 47.7262 38.8478 82.8462 4.1165 70.0889" stroke="#595959" stroke-width="7" stroke-linecap="round" stroke-dasharray="18 18"/>
</g>
</svg>
