<svg width="122" height="105" viewBox="0 0 122 105" fill="none" xmlns="http://www.w3.org/2000/svg">
<path id="pen" fill-rule="evenodd" clip-rule="evenodd" d="M93.263 96.6016C93.6245 96.9263 94.3933 97.334 94.9046 97.4571L116.825 104.066C120.637 105.214 122.13 103.169 120.182 99.5379L108.983 78.5329C108.723 78.0121 108.174 77.3681 107.781 76.9944L18.6314 2.6867C14.5225 -0.739157 8.54916 -0.0258891 5.34126 4.30005L2.47838 8.19029C-0.751031 12.5449 -0.0021692 18.8164 4.11288 22.294L7.8845 25.3923L4.97272 29.2884C3.37186 31.4772 3.77708 34.6619 5.7932 36.3661L30.1427 56.668C31.1877 57.5158 32.7024 57.3089 33.4722 56.2705C34.2848 55.1747 34.0441 53.5739 33.0452 52.6942L8.72618 32.4411L11.6103 28.5219L93.263 96.6016ZM15.7504 6.6319L19.4977 9.73284L10.7717 21.4989L7.04589 18.3693C4.97773 16.6446 4.5818 13.5377 6.20418 11.3202L9.11596 7.42411C10.6956 5.2639 13.6823 4.90727 15.7504 6.6319ZM101.867 78.4101L93.1413 90.1764L14.519 24.6001L23.2266 12.8885L101.867 78.4101ZM97.1482 92.9571L105.339 81.912L114.05 98.0885L97.1482 92.9571Z" fill="#595959"/>
</svg>
