<svg width="108" height="19" viewBox="0 0 108 19" fill="none" xmlns="http://www.w3.org/2000/svg">
<g clip-path="url(#clip0_8451_9981)">
<path fill-rule="evenodd" clip-rule="evenodd" d="M28.8562 0.5L19.6486 18.5H11L14.8534 11.04H14.6805C11.5015 15.1668 6.7583 17.8835 0 18.5V11.1433C0 11.1433 4.32345 10.8879 6.86508 8.21575H0V0.500142H7.71561V6.84612L7.88878 6.84541L11.0417 0.500142H16.8768V6.80588L17.0499 6.8056L20.3211 0.5H28.8562Z" fill="white"/>
<path d="M79.0664 16.5132H81.5513V2.25H79.0664V16.5132Z" fill="white"/>
<path fill-rule="evenodd" clip-rule="evenodd" d="M65.3678 16.3677C65.9078 16.5922 66.457 16.7045 67.0153 16.7045C67.9376 16.7045 68.7629 16.48 69.4911 16.0309C70.2192 15.5819 70.7836 14.963 71.1841 14.1741C71.5846 13.3792 71.7848 12.478 71.7848 11.4707C71.7848 10.4634 71.5785 9.56229 71.1659 8.76736C70.7532 7.97244 70.1798 7.35652 69.4455 6.91961C68.7113 6.47664 67.8769 6.25819 66.9424 6.26425C66.3478 6.26425 65.7774 6.37955 65.2312 6.61014C64.6851 6.84073 64.23 7.16841 63.8659 7.59318C63.8378 7.62552 63.8105 7.65818 63.784 7.69117V2.25928H61.29V16.5134H63.7658L63.7608 15.1818C63.8248 15.2603 63.8933 15.337 63.966 15.412C64.3604 15.8186 64.8277 16.1371 65.3678 16.3677ZM67.9164 14.0649C67.5098 14.3137 67.0456 14.4381 66.5237 14.4381C66.0079 14.4381 65.5346 14.3106 65.1038 14.0558C64.6729 13.7948 64.3301 13.4399 64.0752 12.9908C63.8264 12.5418 63.702 12.032 63.702 11.4616C63.696 10.8912 63.8173 10.3815 64.0661 9.93245C64.321 9.47734 64.6638 9.12538 65.0947 8.87659C65.5255 8.62173 66.0019 8.49733 66.5237 8.5034C67.0456 8.49733 67.5098 8.61869 67.9164 8.86749C68.329 9.11021 68.6445 9.45913 68.863 9.91424C69.0875 10.3633 69.1998 10.8791 69.1998 11.4616C69.1998 12.0442 69.0875 12.56 68.863 13.009C68.6445 13.4581 68.329 13.81 67.9164 14.0649Z" fill="white"/>
<path d="M32.4561 3.11475H35.296L37.8364 12.3923L40.5389 3.11475H42.9055L45.8364 12.2061L48.2758 3.11475H50.879L47.0379 16.5132H44.5894L41.609 7.63163L38.8732 16.5132H36.3974L32.4561 3.11475Z" fill="white"/>
<path fill-rule="evenodd" clip-rule="evenodd" d="M55.073 16.7496C54.0838 16.7557 53.1918 16.5372 52.3969 16.0943C51.608 15.6452 50.9861 15.0232 50.5309 14.2283C50.0819 13.4334 49.8574 12.5262 49.8574 11.5067C49.8574 10.5176 50.088 9.62256 50.5492 8.82157C51.0103 8.02057 51.6353 7.39555 52.4242 6.94651C53.2131 6.49747 54.0929 6.27295 55.0638 6.27295C56.1561 6.27295 57.1118 6.51567 57.931 7.00112C58.7563 7.48657 59.3722 8.17531 59.7788 9.06732C60.1914 9.95327 60.3401 10.9697 60.2248 12.1166H52.4281C52.4499 12.5735 52.5639 12.9892 52.7701 13.3636C53.0007 13.7762 53.3223 14.0978 53.7349 14.3284C54.1476 14.559 54.6087 14.6743 55.1185 14.6743C55.5068 14.6682 55.8679 14.6015 56.2016 14.4741C56.5354 14.3406 56.8175 14.1616 57.0481 13.937C57.2848 13.7125 57.4517 13.4577 57.5488 13.1725H60.152C59.9942 13.8703 59.6787 14.4923 59.2054 15.0384C58.732 15.5785 58.1374 16.0002 57.4213 16.3036C56.7053 16.607 55.9225 16.7557 55.073 16.7496ZM52.7792 9.61346C52.6338 9.86704 52.533 10.1401 52.4769 10.4327H57.6452C57.6077 10.0631 57.4936 9.72629 57.303 9.42231C57.0845 9.06429 56.7872 8.78819 56.411 8.59401C56.0348 8.39376 55.61 8.29364 55.1367 8.29364C54.633 8.29364 54.1749 8.40893 53.7622 8.63952C53.3496 8.87011 53.0219 9.19476 52.7792 9.61346Z" fill="white"/>
<path d="M73.6137 6.48256C73.6137 5.66943 73.7987 4.94732 74.1689 4.31623C74.539 3.67908 75.0579 3.18452 75.7254 2.83257C76.3989 2.47455 77.1848 2.28947 78.0828 2.27734V4.48917C77.6641 4.49524 77.3061 4.58323 77.0088 4.75314C76.7175 4.91698 76.493 5.15667 76.3352 5.47221C76.19 5.76271 76.1116 6.09949 76.1001 6.48256H78.0282V8.58517H76.0986V16.5132H73.6137V8.58517H72.0117V6.48256H73.6137Z" fill="white"/>
<path fill-rule="evenodd" clip-rule="evenodd" d="M87.8679 16.7317C86.8545 16.7317 85.9473 16.5102 85.1463 16.0673C84.3514 15.6182 83.7264 14.9993 83.2713 14.2104C82.8222 13.4155 82.5977 12.5144 82.5977 11.507C82.5977 10.4937 82.8222 9.58951 83.2713 8.79458C83.7264 7.99358 84.3514 7.3716 85.1463 6.92863C85.9473 6.48565 86.8545 6.26416 87.8679 6.26416C88.8873 6.26416 89.7976 6.48565 90.5985 6.92863C91.4056 7.3716 92.0337 7.99055 92.4827 8.78548C92.9317 9.5804 93.1593 10.4876 93.1654 11.507C93.1593 12.5144 92.9317 13.4155 92.4827 14.2104C92.0397 14.9993 91.4147 15.6182 90.6076 16.0673C89.8006 16.5102 88.8873 16.7317 87.8679 16.7317ZM87.8679 14.4471C88.4019 14.4471 88.8752 14.3257 89.2878 14.083C89.7005 13.8342 90.019 13.4883 90.2436 13.0453C90.4681 12.5963 90.5803 12.0835 90.5803 11.507C90.5803 10.9245 90.4681 10.4087 90.2436 9.95966C90.019 9.51062 89.7005 9.16474 89.2878 8.92201C88.8752 8.67322 88.4019 8.54882 87.8679 8.54882C87.34 8.54882 86.8697 8.67322 86.457 8.92201C86.0505 9.16474 85.7349 9.51062 85.5104 9.95966C85.2859 10.4087 85.1767 10.9245 85.1827 11.507C85.1827 12.0835 85.295 12.5963 85.5195 13.0453C85.7501 13.4883 86.0656 13.8342 86.4661 14.083C86.8727 14.3257 87.34 14.4471 87.8679 14.4471Z" fill="white"/>
<path d="M95.851 6.48242H93.084L96.0786 16.5131H98.4998L100.469 10.1065L102.595 16.5131H104.98L107.984 6.48242H105.481L103.777 12.7259L101.894 6.48242H99.4737L97.5999 12.8634L95.851 6.48242Z" fill="white"/>
</g>
<defs>
<clipPath id="clip0_8451_9981">
<rect width="108" height="19" fill="white"/>
</clipPath>
</defs>
</svg>
