<svg width="1384" height="275" viewBox="0 0 1384 275" fill="none" xmlns="http://www.w3.org/2000/svg">
<path d="M95.7857 247.5L1.5 153.214V27.5H221.5V247.5H95.7857Z" fill="#122C5F"/>
<path d="M348.276 245V26.6H411.612L459.348 222.536H464.34L512.076 26.6H575.412V245H542.652V50.312H537.66L490.236 245H433.452L386.028 50.312H381.036V245H348.276ZM696.787 249.368C669.955 249.368 648.635 241.88 632.827 226.904C617.019 211.72 609.115 189.88 609.115 161.384V110.216C609.115 81.72 617.019 59.984 632.827 45.008C648.635 29.824 669.955 22.232 696.787 22.232C723.619 22.232 744.939 29.824 760.747 45.008C776.763 59.984 784.771 81.72 784.771 110.216V161.384C784.771 189.88 776.763 211.72 760.747 226.904C744.939 241.88 723.619 249.368 696.787 249.368ZM696.787 219.104C714.051 219.104 727.363 214.112 736.723 204.128C746.083 193.936 750.763 180.104 750.763 162.632V108.968C750.763 91.496 746.083 77.768 736.723 67.784C727.363 57.592 714.051 52.496 696.787 52.496C679.939 52.496 666.731 57.592 657.163 67.784C647.595 77.768 642.811 91.496 642.811 108.968V162.632C642.811 180.104 647.595 193.936 657.163 204.128C666.731 214.112 679.939 219.104 696.787 219.104ZM802.996 245V215.048H832.324V56.552H802.996V26.6H890.356C919.476 26.6 941.732 33.984 957.124 48.752C972.725 63.52 980.525 85.776 980.525 115.52V156.392C980.525 186.136 972.725 208.392 957.124 223.16C941.732 237.72 919.476 245 890.356 245H802.996ZM866.332 214.424H890.668C909.596 214.424 923.636 209.64 932.788 200.072C941.94 190.504 946.516 176.256 946.516 157.328V114.272C946.516 95.136 941.94 80.888 932.788 71.528C923.636 62.168 909.596 57.488 890.668 57.488H866.332V214.424ZM1094.1 249.368C1076.84 249.368 1061.97 246.248 1049.49 240.008C1037.22 233.768 1027.65 224.824 1020.78 213.176C1014.13 201.32 1010.8 186.968 1010.8 170.12V26.6H1044.81V171.056C1044.81 186.448 1049.07 198.304 1057.6 206.624C1066.13 214.944 1078.3 219.104 1094.1 219.104C1109.91 219.104 1122.08 214.944 1130.61 206.624C1139.14 198.304 1143.4 186.448 1143.4 171.056V26.6H1177.1V170.12C1177.1 186.968 1173.77 201.32 1167.11 213.176C1160.46 224.824 1150.89 233.768 1138.41 240.008C1125.93 246.248 1111.16 249.368 1094.1 249.368ZM1289.09 249.368C1272.66 249.368 1258.1 246.456 1245.41 240.632C1232.72 234.808 1222.74 226.28 1215.46 215.048C1208.38 203.608 1204.85 189.776 1204.85 173.552V165.752H1238.23V173.552C1238.23 188.944 1242.81 200.488 1251.96 208.184C1261.32 215.88 1273.7 219.728 1289.09 219.728C1304.69 219.728 1316.44 216.504 1324.34 210.056C1332.25 203.4 1336.2 194.872 1336.2 184.472C1336.2 177.608 1334.33 171.992 1330.58 167.624C1326.84 163.256 1321.54 159.824 1314.67 157.328C1307.81 154.624 1299.59 152.128 1290.02 149.84L1278.48 147.032C1264.54 143.704 1252.38 139.648 1241.98 134.864C1231.78 129.872 1223.88 123.32 1218.26 115.208C1212.65 107.096 1209.84 96.696 1209.84 84.008C1209.84 71.112 1212.96 60.088 1219.2 50.936C1225.65 41.784 1234.49 34.712 1245.72 29.72C1256.95 24.728 1270.16 22.232 1285.34 22.232C1300.53 22.232 1314.05 24.832 1325.9 30.032C1337.97 35.232 1347.43 42.928 1354.3 53.12C1361.16 63.312 1364.59 76.104 1364.59 91.496V102.728H1331.21V91.496C1331.21 82.136 1329.23 74.544 1325.28 68.72C1321.54 62.896 1316.23 58.632 1309.37 55.928C1302.5 53.224 1294.5 51.872 1285.34 51.872C1272.03 51.872 1261.63 54.68 1254.14 60.296C1246.86 65.704 1243.22 73.296 1243.22 83.072C1243.22 89.728 1244.78 95.24 1247.9 99.608C1251.23 103.768 1256.02 107.2 1262.26 109.904C1268.5 112.608 1276.3 115 1285.66 117.08L1297.2 119.888C1311.34 123.008 1323.82 127.064 1334.64 132.056C1345.46 136.84 1353.98 143.392 1360.22 151.712C1366.46 160.032 1369.58 170.744 1369.58 183.848C1369.58 196.952 1366.26 208.392 1359.6 218.168C1353.15 227.944 1343.9 235.64 1331.83 241.256C1319.77 246.664 1305.52 249.368 1289.09 249.368Z" fill="#122C5F"/>
</svg>
